<svg width="24" height="24" viewBox="0 0 24 24" fill="none" xmlns="http://www.w3.org/2000/svg">
<path fill-rule="evenodd" clip-rule="evenodd" d="M6.76972 3.08151C10.2178 2.69614 13.7825 2.69614 17.2307 3.08151C19.1291 3.29369 20.6603 4.78947 20.8831 6.69452C21.2954 10.2195 21.2954 13.7806 20.8831 17.3056C20.6603 19.2106 19.1291 20.7064 17.2307 20.9186C13.7825 21.304 10.2178 21.304 6.76972 20.9186C4.87132 20.7064 3.34013 19.2106 3.11732 17.3056C2.70504 13.7806 2.70504 10.2195 3.11732 6.69452C3.34013 4.78947 4.87132 3.29369 6.76972 3.08151ZM16.4108 8.98009L17.2502 8.17716L17.2495 8.00003H14.3478L12.2795 13.1602L9.92675 8.00068H6.88303V8.17716L7.86374 9.35779C7.91115 9.40047 7.94783 9.45373 7.9708 9.51325C7.99377 9.57276 8.00238 9.63685 7.99593 9.70032V14.3414C8.01 14.4239 8.00449 14.5086 7.97983 14.5886C7.95517 14.6685 7.91206 14.7416 7.85397 14.8018L6.75018 16.1401V16.3159H9.87726V16.1401L8.77412 14.8018C8.71556 14.7416 8.67147 14.6689 8.64518 14.5891C8.61889 14.5094 8.6111 14.4247 8.62239 14.3414V10.3281L11.3672 16.3165H11.6863L14.0437 10.3281V15.1014C14.0437 15.2277 14.0437 15.2525 13.9603 15.3358L13.1118 16.159V16.3348H17.2293V16.159L16.4108 15.3554C16.3754 15.3283 16.348 15.2922 16.3316 15.2507C16.3152 15.2093 16.3104 15.1642 16.3177 15.1203V9.21518C16.3104 9.17123 16.3152 9.12614 16.3316 9.08472C16.348 9.04331 16.3754 9.00714 16.4108 8.98009Z" fill="black"/>
</svg>
