<svg width="24" height="24" viewBox="0 0 24 24" fill="none" xmlns="http://www.w3.org/2000/svg">
<path fill-rule="evenodd" clip-rule="evenodd" d="M8.37984 7.19396C9.34158 5.69967 11.0203 4.70825 12.9317 4.70825C15.8122 4.70825 18.1669 6.9597 18.3319 9.79883C18.3953 9.79616 18.4591 9.79481 18.5231 9.79481C20.996 9.79481 23.0006 11.7995 23.0006 14.2724C23.0006 16.7453 20.996 18.7499 18.5231 18.7499H6.87443C3.62953 18.7499 0.999023 16.1194 0.999023 12.8745C0.999023 9.62964 3.62953 6.99913 6.87443 6.99913C7.39409 6.99913 7.89881 7.06678 8.37984 7.19396ZM11.9998 15.7499C12.1799 15.7499 12.3451 15.6865 12.4744 15.5807L14.9683 13.5856C15.2918 13.3268 15.3442 12.8549 15.0854 12.5314C14.8267 12.208 14.3547 12.1555 14.0313 12.4143L12.7498 13.4394V9.99994C12.7498 9.58573 12.414 9.24994 11.9998 9.24994C11.5856 9.24994 11.2498 9.58573 11.2498 9.99994V13.4395L9.9683 12.4143C9.64486 12.1555 9.17289 12.208 8.91413 12.5314C8.65537 12.8549 8.70782 13.3268 9.03126 13.5856L11.5286 15.5835C11.6559 15.6863 11.8174 15.7485 11.9935 15.7499L11.9998 15.7499Z" fill="black"/>
</svg>
