<svg width="24" height="24" viewBox="0 0 24 24" fill="none" xmlns="http://www.w3.org/2000/svg">
<path d="M10.9943 10.8253C11.1 10.7195 11.1114 10.5522 11.0239 10.4308C10.6823 9.95653 10.3748 9.45581 10.1049 8.93221L10.7744 8.43605C11.5736 7.84381 11.7191 6.70542 11.0945 5.93125L9.29947 3.7062C8.71548 2.98231 7.66725 2.8417 6.91313 3.38611L5.13983 4.66627C3.69185 5.71158 3.18192 7.63299 3.92102 9.25874L4.47553 10.4785L4.4767 10.481C5.13037 11.9047 5.9555 13.2302 6.92642 14.4319C7.03711 14.5689 7.24181 14.5778 7.36635 14.4532L8.0071 13.8125C8.11638 13.7032 8.12453 13.529 8.02813 13.4082C7.1635 12.3247 6.42698 11.1335 5.84047 9.85641L5.83988 9.85511L5.28654 8.63795C4.84307 7.6625 5.14903 6.50966 6.01782 5.88247L7.79111 4.60231C7.89884 4.52454 8.04859 4.54462 8.13202 4.64804L9.92706 6.87308C10.0163 6.98368 9.9955 7.14631 9.88134 7.23091L8.71296 8.09677C8.42921 8.30705 8.33061 8.68681 8.47622 9.00857C8.8672 9.87251 9.34681 10.6869 9.90362 11.4402C10.0108 11.5852 10.2215 11.5981 10.349 11.4706L10.9943 10.8253Z" fill="black"/>
<path fill-rule="evenodd" clip-rule="evenodd" d="M19.9973 3.94361L4.03053 19.9104C4.02156 19.9193 4.01241 19.928 4.00311 19.9365L3.96987 19.9697C3.67698 20.2626 3.67698 20.7375 3.96987 21.0304C4.26276 21.3233 4.73764 21.3233 5.03053 21.0304L9.23803 16.8229C10.6993 18.0874 12.3601 19.129 14.1701 19.8974L14.9279 20.235C16.5489 20.9572 18.4543 20.4443 19.4936 19.0058L20.768 17.242C21.3129 16.4879 21.1724 15.4393 20.4483 14.8551L18.2236 13.0603C17.4494 12.4358 16.311 12.5812 15.7188 13.3804L15.2226 14.0499C14.5296 13.6928 13.8768 13.2697 13.2721 12.7888L21.0305 5.03036C21.3234 4.73747 21.3234 4.26259 21.0305 3.9697C20.7466 3.68578 20.2917 3.67708 19.9973 3.94361ZM15.1463 15.6786C14.0839 15.1978 13.0966 14.5831 12.2054 13.8555L10.3017 15.7592C11.6274 16.8919 13.1287 17.8265 14.762 18.5191L14.7745 18.5244L15.5383 18.8648C16.511 19.2982 17.6542 18.9904 18.2778 18.1273L19.5522 16.3636C19.63 16.2558 19.6099 16.106 19.5065 16.0226L17.2818 14.2278C17.1712 14.1385 17.0085 14.1593 16.9239 14.2735L16.0581 15.4419C15.8478 15.7256 15.468 15.8242 15.1463 15.6786Z" fill="black"/>
</svg>
