<svg width="24" height="24" viewBox="0 0 24 24" fill="none" xmlns="http://www.w3.org/2000/svg">
<path d="M10.8732 16.4069C10.9221 16.2903 10.9472 16.1653 10.9471 16.039V6.95853C10.9471 6.42953 10.5117 6.00003 9.97298 6.00003H6.97172C6.43552 6.00003 6.00018 6.43003 6.00018 6.95853V16.039C6.00045 16.2934 6.10281 16.5373 6.28488 16.7174C6.46695 16.8975 6.7139 16.9991 6.97172 17H9.97298C10.1009 17.0002 10.2277 16.9754 10.3459 16.9271C10.4641 16.8789 10.5716 16.8081 10.6621 16.7189C10.7525 16.6296 10.8243 16.5236 10.8732 16.4069Z" fill="black"/>
<path d="M17.7156 12.7175C17.8977 12.5374 18.0001 12.2934 18.0002 12.039V6.95853C18.0002 6.42953 17.5643 6.00003 17.0286 6.00003H14.0274C13.4917 6.00003 13.0533 6.43003 13.0533 6.95853V12.039C13.0536 12.2938 13.1563 12.5381 13.3389 12.7183C13.5215 12.8984 13.7691 12.9998 14.0274 13H17.0286C17.2865 12.9992 17.5335 12.8977 17.7156 12.7175Z" fill="black"/>
<path fill-rule="evenodd" clip-rule="evenodd" d="M17.2584 2.83306C13.7919 2.44562 10.2085 2.44562 6.74195 2.83306C4.7299 3.05794 3.10556 4.64295 2.86901 6.66548C2.45447 10.2098 2.45447 13.7903 2.86901 17.3346C3.10556 19.3571 4.7299 20.9422 6.74195 21.167C10.2085 21.5545 13.7919 21.5545 17.2584 21.167C19.2705 20.9422 20.8948 19.3571 21.1314 17.3346C21.5459 13.7903 21.5459 10.2098 21.1314 6.66548C20.8948 4.64295 19.2705 3.05794 17.2584 2.83306ZM6.90856 4.32378C10.2644 3.94871 13.736 3.94871 17.0918 4.32378C18.4219 4.47244 19.4874 5.52205 19.6415 6.83973C20.0425 10.2683 20.0425 13.7318 19.6415 17.1604C19.4874 18.478 18.4219 19.5277 17.0918 19.6763C13.736 20.0514 10.2644 20.0514 6.90856 19.6763C5.57846 19.5277 4.51297 18.478 4.35885 17.1604C3.95786 13.7318 3.95786 10.2683 4.35885 6.83973C4.51297 5.52205 5.57845 4.47244 6.90856 4.32378Z" fill="black"/>
</svg>
