<svg width="24" height="24" viewBox="0 0 24 24" fill="none" xmlns="http://www.w3.org/2000/svg">
<path fill-rule="evenodd" clip-rule="evenodd" d="M18.7501 10.5L18.7435 10.7429L18.7501 11L18.7439 11.2433L18.7501 11.5L18.7442 11.7449L18.75 12L18.5876 19.103C18.5491 20.7883 17.2673 22.184 15.5914 22.3655C13.204 22.624 10.7956 22.624 8.40819 22.3655C6.73227 22.184 5.45051 20.7883 5.41198 19.103L5.2496 12L5.25547 11.7432L5.24962 11.5L5.25577 11.2443L5.24957 11L5.25607 10.744L5.24951 10.5L5.41352 4.40211C5.41581 4.31703 5.42178 4.23283 5.43131 4.14968L5.43504 4.11452L5.43799 4.08618C5.5186 3.26208 5.97529 2.54332 6.64081 2.11199C6.69046 2.07897 6.74128 2.04752 6.79319 2.01772C6.84397 1.98767 6.89581 1.95917 6.94863 1.93228C7.27523 1.75992 7.63972 1.6482 8.02772 1.61248C10.6702 1.36924 13.3294 1.36924 15.9718 1.61248C16.3592 1.64814 16.7232 1.75956 17.0494 1.93146C17.1022 1.95831 17.154 1.98677 17.2048 2.01678C17.2584 2.04747 17.3108 2.07992 17.3619 2.11403C18.0239 2.5444 18.4786 3.25943 18.5609 4.07938L18.5687 4.15368C18.578 4.23553 18.5838 4.31839 18.586 4.40211L18.7501 10.5ZM17.074 4.32073L17.231 11.1874L17.1038 15.9176C17.0752 16.981 16.2561 17.8551 15.1968 17.9526C13.07 18.1483 10.9296 18.1483 8.80273 17.9526C7.74347 17.8551 6.92436 16.981 6.89576 15.9176L6.76856 11.188L6.92555 4.32073C6.92589 4.30595 6.9265 4.29124 6.92739 4.2766C6.98687 3.87432 7.22 3.52708 7.55055 3.31621C7.67577 3.25093 7.81471 3.20764 7.96251 3.19164C10.6462 2.90101 13.3534 2.90101 16.0371 3.19164C16.1848 3.20764 16.3237 3.2509 16.4489 3.31613C16.7796 3.52705 17.0128 3.87446 17.0722 4.27693C17.0731 4.29147 17.0737 4.30606 17.074 4.32073ZM11.9998 21.7C12.8282 21.7 13.4998 21.0285 13.4998 20.2C13.4998 19.3716 12.8282 18.7 11.9998 18.7C11.1714 18.7 10.4998 19.3716 10.4998 20.2C10.4998 21.0285 11.1714 21.7 11.9998 21.7Z" fill="black"/>
</svg>
