<svg width="24" height="24" viewBox="0 0 24 24" fill="none" xmlns="http://www.w3.org/2000/svg">
<path d="M18.9548 3.10577C19.2477 2.81288 19.2477 2.338 18.9548 2.04511C18.6619 1.75222 18.187 1.75222 17.8941 2.04511L17.187 2.75222C16.6916 3.24765 16.7169 4.01752 17.1491 4.49983C20.0516 7.73859 19.9464 12.7208 16.8334 15.8337C15.2234 17.4437 13.1133 18.2492 11.0031 18.2501L10.9998 18.2501L10.9968 18.2501C9.02903 18.2494 7.06156 17.5492 5.49959 16.1494C5.01727 15.7171 4.24741 15.6918 3.75197 16.1872L3.04487 16.8944C2.75197 17.1872 2.75197 17.6621 3.04487 17.955C3.33776 18.2479 3.81263 18.2479 4.10553 17.955L4.65597 17.4046C6.27576 18.7952 8.24355 19.5674 10.2498 19.7213V21.2501H8.49982C8.0856 21.2501 7.74982 21.5858 7.74982 22.0001C7.74982 22.4143 8.0856 22.7501 8.49982 22.7501H13.4998C13.914 22.7501 14.2498 22.4143 14.2498 22.0001C14.2498 21.5858 13.914 21.2501 13.4998 21.2501H11.7498V19.7214C13.9895 19.5496 16.1811 18.6073 17.8941 16.8944C21.5233 13.2652 21.6933 7.4873 18.4043 3.65622L18.9548 3.10577Z" fill="black"/>
<path fill-rule="evenodd" clip-rule="evenodd" d="M4.49982 10.0001C4.49982 6.41021 7.40997 3.50006 10.9998 3.50006C14.5897 3.50006 17.4998 6.41021 17.4998 10.0001C17.4998 13.5899 14.5897 16.5001 10.9998 16.5001C7.40997 16.5001 4.49982 13.5899 4.49982 10.0001ZM12.9998 6.25006C11.481 6.25006 10.2498 7.48128 10.2498 9.00006C10.2498 10.5188 11.481 11.7501 12.9998 11.7501C14.5186 11.7501 15.7498 10.5188 15.7498 9.00006C15.7498 7.48128 14.5186 6.25006 12.9998 6.25006ZM6.24982 12.5001C6.24982 11.8097 6.80946 11.2501 7.49982 11.2501C8.19017 11.2501 8.74982 11.8097 8.74982 12.5001C8.74982 13.1904 8.19017 13.7501 7.49982 13.7501C6.80946 13.7501 6.24982 13.1904 6.24982 12.5001Z" fill="black"/>
</svg>
