<svg width="24" height="24" viewBox="0 0 24 24" fill="none" xmlns="http://www.w3.org/2000/svg">
<path fill-rule="evenodd" clip-rule="evenodd" d="M14.3466 10.726V7.69003H15.6996V13.993C15.6996 14.543 15.7216 15.137 15.7436 15.5H14.5336L14.4786 14.653H14.4566C14.1376 15.247 13.4886 15.621 12.7076 15.621C11.4316 15.621 10.4196 14.532 10.4196 12.882C10.4086 11.089 11.5306 10.022 12.8176 10.022C13.5546 10.022 14.0826 10.33 14.3246 10.726H14.3466ZM14.3026 13.575C14.3356 13.454 14.3466 13.322 14.3466 13.179V12.376C14.3466 12.266 14.3356 12.134 14.3136 12.024C14.1926 11.496 13.7636 11.067 13.1476 11.067C12.2786 11.067 11.7946 11.837 11.7946 12.838C11.7946 13.817 12.2786 14.532 13.1366 14.532C13.6866 14.532 14.1706 14.158 14.3026 13.575Z" fill="black"/>
<path d="M8.35516 15.5V8.08603H9.70816V15.5H8.35516Z" fill="black"/>
<path fill-rule="evenodd" clip-rule="evenodd" d="M17.2584 2.83306C13.7919 2.44562 10.2085 2.44562 6.74195 2.83306C4.7299 3.05794 3.10556 4.64295 2.86901 6.66548C2.45447 10.2098 2.45447 13.7903 2.86901 17.3346C3.10556 19.3571 4.7299 20.9422 6.74195 21.167C10.2085 21.5545 13.7919 21.5545 17.2584 21.167C19.2705 20.9422 20.8948 19.3571 21.1314 17.3346C21.5459 13.7903 21.5459 10.2098 21.1314 6.66548C20.8948 4.64295 19.2705 3.05794 17.2584 2.83306ZM6.90856 4.32378C10.2644 3.94871 13.736 3.94871 17.0918 4.32378C18.4219 4.47244 19.4874 5.52205 19.6415 6.83973C20.0425 10.2683 20.0425 13.7318 19.6415 17.1604C19.4874 18.478 18.4219 19.5277 17.0918 19.6763C13.736 20.0514 10.2644 20.0514 6.90856 19.6763C5.57846 19.5277 4.51297 18.478 4.35885 17.1604C3.95786 13.7318 3.95786 10.2683 4.35885 6.83973C4.51297 5.52205 5.57845 4.47244 6.90856 4.32378Z" fill="black"/>
</svg>
