<svg width="24" height="24" viewBox="0 0 24 24" fill="none" xmlns="http://www.w3.org/2000/svg">
<path d="M11.4699 8.53033C11.6105 8.67098 11.8013 8.75 12.0002 8.75C12.1991 8.75 12.3899 8.67098 12.5305 8.53033L13.5305 7.53033C13.745 7.31583 13.8092 6.99324 13.6931 6.71299C13.577 6.43273 13.3035 6.25 13.0002 6.25H11.0002C10.6968 6.25 10.4234 6.43273 10.3073 6.71299C10.1912 6.99324 10.2554 7.31583 10.4699 7.53033L11.4699 8.53033Z" fill="black"/>
<path d="M11.4699 15.4697C11.6105 15.329 11.8013 15.25 12.0002 15.25C12.1991 15.25 12.3899 15.329 12.5305 15.4697L13.5305 16.4697C13.745 16.6842 13.8092 17.0068 13.6931 17.287C13.577 17.5673 13.3035 17.75 13.0002 17.75H11.0002C10.6968 17.75 10.4234 17.5673 10.3073 17.287C10.1912 17.0068 10.2554 16.6842 10.4699 16.4697L11.4699 15.4697Z" fill="black"/>
<path fill-rule="evenodd" clip-rule="evenodd" d="M13.1492 12L13.3365 11.8386C15.3119 10.1366 16.9544 8.08279 18.1804 5.78147C18.6615 4.8784 18.0642 3.77732 17.0448 3.6882L15.8713 3.58559C13.2955 3.36038 10.7049 3.36039 8.12908 3.58559L6.95554 3.6882C5.9362 3.77732 5.33889 4.8784 5.82 5.78148C7.04602 8.08279 8.68845 10.1366 10.6639 11.8386L10.8512 12L10.6639 12.1614C8.68845 13.8634 7.04602 15.9172 5.82 18.2185C5.33889 19.1216 5.9362 20.2227 6.95554 20.3118L8.12908 20.4144C10.7049 20.6396 13.2955 20.6396 15.8713 20.4144L17.0448 20.3118C18.0642 20.2227 18.6615 19.1216 18.1804 18.2185C16.9544 15.9172 15.3119 13.8634 13.3365 12.1614L13.1492 12ZM12.0038 11.0063C12.0043 11.0061 12.0051 11.0058 12.0067 11.0044L12.3574 10.7022C14.1645 9.14525 15.6716 7.27129 16.8047 5.17292L15.7407 5.07989C13.2518 4.86229 10.7486 4.86229 8.25973 5.07989L7.19573 5.17292C8.32878 7.27129 9.83586 9.14525 11.643 10.7022L11.9937 11.0044C11.9947 11.0053 11.9954 11.0057 11.9959 11.006C11.9957 11.0059 11.9962 11.0061 11.9959 11.006C11.9967 11.0063 11.9986 11.0068 12.0002 11.0068C12.0018 11.0068 12.0031 11.0065 12.0038 11.0063ZM12.0067 12.9956C12.0051 12.9942 12.0043 12.9939 12.0038 12.9937C12.0035 12.9936 12.003 12.9935 12.0024 12.9934C12.0018 12.9932 12.001 12.9932 12.0002 12.9932C11.9986 12.9932 11.9973 12.9935 11.9966 12.9937C11.9961 12.9939 11.9953 12.9942 11.9937 12.9956L11.643 13.2978C9.83586 14.8547 8.32878 16.7287 7.19573 18.8271L8.25973 18.9201C10.7486 19.1377 13.2518 19.1377 15.7407 18.9201L16.8047 18.8271C15.6716 16.7287 14.1645 14.8547 12.3574 13.2978L12.0067 12.9956Z" fill="black"/>
</svg>
