<svg width="24" height="24" viewBox="0 0 24 24" fill="none" xmlns="http://www.w3.org/2000/svg">
<path d="M10.1998 6.95007C10.614 6.95007 10.9498 7.28586 10.9498 7.70007V9.45007H12.6998C13.114 9.45007 13.4498 9.78586 13.4498 10.2001C13.4498 10.6143 13.114 10.9501 12.6998 10.9501H10.9498V12.7001C10.9498 13.1143 10.614 13.4501 10.1998 13.4501C9.78562 13.4501 9.44983 13.1143 9.44983 12.7001V10.9501H7.69983C7.28562 10.9501 6.94983 10.6143 6.94983 10.2001C6.94983 9.78586 7.28562 9.45007 7.69983 9.45007H9.44983V7.70007C9.44983 7.28586 9.78562 6.95007 10.1998 6.95007Z" fill="black"/>
<path fill-rule="evenodd" clip-rule="evenodd" d="M5.39842 14.9446C7.8552 17.4014 11.7346 17.5685 14.3849 15.4458L19.5405 20.6014C19.8334 20.8943 20.3083 20.8943 20.6012 20.6014C20.8941 20.3085 20.8941 19.8337 20.6012 19.5408L15.4456 14.3851C17.5682 11.7349 17.4011 7.85544 14.9444 5.39866C12.3083 2.76262 8.03445 2.76262 5.39842 5.39866C2.76238 8.0347 2.76238 12.3086 5.39842 14.9446ZM6.45908 6.45932C4.40882 8.50957 4.40882 11.8337 6.45908 13.8839C8.50783 15.9327 11.8286 15.9342 13.8792 13.8884L13.8837 13.8839L13.8882 13.8794C15.9339 11.8288 15.9324 8.50807 13.8837 6.45932C11.8334 4.40907 8.50933 4.40907 6.45908 6.45932Z" fill="black"/>
</svg>
