<svg width="24" height="24" viewBox="0 0 24 24" fill="none" xmlns="http://www.w3.org/2000/svg">
<path d="M15.9327 10.143V15.5H14.5687V10.143H15.9327Z" fill="black"/>
<path d="M14.4917 8.64703C14.4917 8.22903 14.7997 7.91003 15.2507 7.91003C15.7127 7.91003 15.9987 8.22903 16.0097 8.64703C16.0097 9.05403 15.7127 9.37303 15.2397 9.37303C14.7887 9.37303 14.4917 9.05403 14.4917 8.64703Z" fill="black"/>
<path fill-rule="evenodd" clip-rule="evenodd" d="M12.6342 15.5L11.9632 13.399H9.60922L8.97122 15.5H7.57422L9.95022 8.08603H11.6772L14.0862 15.5H12.6342ZM10.4012 10.55L9.82922 12.376H11.7322L11.1492 10.55C11.0335 10.185 10.9322 9.78397 10.8394 9.41687C10.8176 9.3304 10.7962 9.24582 10.7752 9.16403H10.7532C10.7155 9.31097 10.6779 9.46822 10.6393 9.62917C10.5653 9.93809 10.488 10.2608 10.4012 10.55Z" fill="black"/>
<path fill-rule="evenodd" clip-rule="evenodd" d="M17.2584 2.83306C13.7919 2.44562 10.2085 2.44562 6.74195 2.83306C4.7299 3.05794 3.10556 4.64295 2.86901 6.66548C2.45447 10.2098 2.45447 13.7903 2.86901 17.3346C3.10556 19.3571 4.7299 20.9422 6.74195 21.167C10.2085 21.5545 13.7919 21.5545 17.2584 21.167C19.2705 20.9422 20.8948 19.3571 21.1314 17.3346C21.5459 13.7903 21.5459 10.2098 21.1314 6.66548C20.8948 4.64295 19.2705 3.05794 17.2584 2.83306ZM6.90856 4.32378C10.2644 3.94871 13.736 3.94871 17.0918 4.32378C18.4219 4.47244 19.4874 5.52205 19.6415 6.83973C20.0425 10.2683 20.0425 13.7318 19.6415 17.1604C19.4874 18.478 18.4219 19.5277 17.0918 19.6763C13.736 20.0514 10.2644 20.0514 6.90856 19.6763C5.57846 19.5277 4.51297 18.478 4.35885 17.1604C3.95786 13.7318 3.95786 10.2683 4.35885 6.83973C4.51297 5.52205 5.57845 4.47244 6.90856 4.32378Z" fill="black"/>
</svg>
