<svg width="24" height="24" viewBox="0 0 24 24" fill="none" xmlns="http://www.w3.org/2000/svg">
<path fill-rule="evenodd" clip-rule="evenodd" d="M6.76972 3.08151C10.2178 2.69614 13.7825 2.69614 17.2307 3.08151C19.1291 3.29369 20.6603 4.78947 20.8831 6.69452C21.2954 10.2195 21.2954 13.7806 20.8831 17.3056C20.6603 19.2106 19.1291 20.7064 17.2307 20.9186C13.7825 21.304 10.2178 21.304 6.76972 20.9186C4.87132 20.7064 3.34013 19.2106 3.11732 17.3056C2.70504 13.7806 2.70504 10.2195 3.11732 6.69452C3.34013 4.78947 4.87132 3.29369 6.76972 3.08151ZM16.5751 7.25003C16.6369 7.59473 16.557 7.93086 16.2368 7.96109L15.7056 8.05698L15.4848 16.374C15.017 16.6242 14.5913 16.7615 14.2399 16.7493C13.6732 16.7296 13.5365 16.5344 13.1295 15.9535L9.82427 10.0074L9.67468 15.6431L10.7626 15.9474C10.7626 15.9474 10.7445 16.6282 9.86208 16.5975L7.42263 16.6648C7.35581 16.5103 7.43674 16.1329 7.68693 16.0686L8.32676 15.9004L8.52449 8.45081L7.64405 8.34411C7.58228 7.99941 7.7727 7.51503 8.26623 7.49448L10.8835 7.39512L14.3282 13.4217L14.4668 8.20066L13.5516 8.05443C13.4918 7.63739 13.7804 7.34321 14.1356 7.32029L16.5751 7.25003Z" fill="black"/>
</svg>
