<svg width="24" height="24" viewBox="0 0 24 24" fill="none" xmlns="http://www.w3.org/2000/svg">
<path fill-rule="evenodd" clip-rule="evenodd" d="M10.5326 3.81144C10.2851 3.8475 10.0427 3.91246 9.81032 4.00497C8.4271 4.55569 7.60649 5.98768 7.83066 7.45953L7.8617 7.66334C7.90016 7.91587 7.96648 8.16337 8.05944 8.4013L8.97433 10.743C11.1635 10.5942 13.3609 10.6071 15.5487 10.7817L17.0448 10.9011C18.0129 10.9784 18.8034 11.7062 18.9604 12.6646C19.322 14.8735 19.322 17.1265 18.9604 19.3354C18.8034 20.2938 18.0129 21.0215 17.0448 21.0988L15.5487 21.2183C13.1866 21.4068 10.8131 21.4068 8.45099 21.2183L6.95486 21.0988C5.98677 21.0215 5.19627 20.2938 5.03933 19.3354C4.67764 17.1265 4.67764 14.8735 5.03933 12.6646C5.19627 11.7062 5.98677 10.9784 6.95486 10.9011L7.41145 10.8647L6.66228 8.94716C6.52902 8.60605 6.43394 8.25123 6.3788 7.88919L6.34776 7.68538C6.01851 5.52354 7.22381 3.42026 9.25546 2.61137C9.59675 2.47548 9.95279 2.38008 10.3163 2.32712C12.4802 2.01182 14.5757 3.23066 15.3714 5.26749L15.4465 5.45951C15.5797 5.80062 15.6748 6.15544 15.7299 6.51749L15.8713 7.4455C15.9129 7.71849 15.7253 7.9735 15.4523 8.01508L14.958 8.09037C14.685 8.13194 14.43 7.94434 14.3884 7.67135L14.247 6.74334C14.2086 6.4908 14.1423 6.2433 14.0493 6.00537L13.9743 5.81335C13.4325 4.42661 12.0058 3.59678 10.5326 3.81144ZM11.9998 14.5C11.1714 14.5 10.4998 15.1716 10.4998 16C10.4998 16.8284 11.1714 17.5 11.9998 17.5C12.8282 17.5 13.4998 16.8284 13.4998 16C13.4998 15.1716 12.8282 14.5 11.9998 14.5Z" fill="black"/>
</svg>
