<svg width="24" height="24" viewBox="0 0 24 24" fill="none" xmlns="http://www.w3.org/2000/svg">
<path fill-rule="evenodd" clip-rule="evenodd" d="M6.90856 4.32378C10.2644 3.94871 13.736 3.94871 17.0918 4.32378C18.4219 4.47244 19.4874 5.52205 19.6415 6.83973C20.0425 10.2683 20.0425 13.7318 19.6415 17.1604C19.4874 18.478 18.4219 19.5277 17.0918 19.6763C13.736 20.0514 10.2644 20.0514 6.90856 19.6763C5.57846 19.5277 4.51297 18.478 4.35885 17.1604C3.95786 13.7318 3.95786 10.2683 4.35885 6.83973C4.51297 5.52205 5.57845 4.47244 6.90856 4.32378ZM17.2584 2.83306C13.7919 2.44562 10.2085 2.44562 6.74195 2.83306C4.7299 3.05794 3.10556 4.64295 2.86901 6.66548C2.45447 10.2098 2.45447 13.7903 2.86901 17.3346C3.10556 19.3571 4.7299 20.9422 6.74195 21.167C10.2085 21.5545 13.7919 21.5545 17.2584 21.167C19.2705 20.9422 20.8948 19.3571 21.1314 17.3346C21.5459 13.7903 21.5459 10.2098 21.1314 6.66548C20.8948 4.64295 19.2705 3.05794 17.2584 2.83306ZM9.3749 15.5H8.0329V8.18504C8.5169 8.09704 9.1879 8.03104 10.1009 8.03104C11.0909 8.03104 11.8169 8.24004 12.2899 8.63604C12.7299 8.99904 13.0159 9.58204 13.0159 10.275C13.0159 10.979 12.7959 11.562 12.3779 11.958C11.8389 12.497 10.9919 12.75 10.0349 12.75C9.7819 12.75 9.5509 12.739 9.3749 12.706V15.5ZM10.1559 9.06504C9.7819 9.06504 9.5179 9.09804 9.3749 9.13104V11.639C9.5399 11.683 9.7599 11.694 10.0349 11.694C11.0469 11.694 11.6629 11.199 11.6629 10.33C11.6629 9.50504 11.0909 9.06504 10.1559 9.06504ZM14.9065 15.5H13.5535V11.87C13.5535 11.144 13.5425 10.627 13.5095 10.143H14.6865L14.7305 11.166H14.7745C15.0385 10.407 15.6655 10.022 16.2375 10.022C16.3695 10.022 16.4465 10.033 16.5565 10.055V11.331C16.4465 11.309 16.3255 11.287 16.1605 11.287C15.5115 11.287 15.0715 11.705 14.9505 12.31C14.9285 12.431 14.9065 12.574 14.9065 12.728V15.5Z" fill="black"/>
</svg>
