<svg width="24" height="24" viewBox="0 0 24 24" fill="none" xmlns="http://www.w3.org/2000/svg">
<path d="M20.0285 14.0938C19.9462 14.1664 19.8965 14.2691 19.8913 14.3787C19.8427 15.3913 19.7595 16.4027 19.6415 17.411C19.4874 18.7286 18.4219 19.7783 17.0918 19.9269C13.736 20.302 10.2644 20.302 6.90856 19.9269C5.57845 19.7783 4.51297 18.7286 4.35885 17.411C3.95786 13.9824 3.95786 10.5189 4.35885 7.09033C4.51297 5.77266 5.57846 4.72304 6.90856 4.57438C9.12109 4.3271 11.3866 4.24297 13.6336 4.32176C13.7959 4.32745 13.934 4.20399 13.9453 4.04202L13.9945 3.339C13.9975 3.29761 14.0016 3.25666 14.0066 3.21617C14.0311 3.02178 13.8963 2.8301 13.7005 2.82317C11.3749 2.74078 9.03293 2.82762 6.74195 3.08367C4.7299 3.30854 3.10556 4.89355 2.86901 6.91608C2.45447 10.4604 2.45447 14.0409 2.86901 17.5852C3.10556 19.6077 4.7299 21.1928 6.74195 21.4176C10.2085 21.8051 13.7919 21.8051 17.2584 21.4176C19.2705 21.1928 20.8948 19.6077 21.1314 17.5852C21.3004 16.1404 21.4005 14.6896 21.4317 13.2376C21.4356 13.0554 21.212 12.9646 21.0841 13.0944C20.744 13.4397 20.3919 13.773 20.0285 14.0938Z" fill="black"/>
<path d="M7.8674 15.5504C7.64617 15.4895 7.49483 15.2858 7.50034 15.0564L7.55958 12.5925C7.6444 9.06456 10.5287 6.24875 14.0577 6.24875L15.3151 6.24875C15.3414 5.62502 15.3773 5.0016 15.4227 4.37869L15.4905 3.44805C15.5319 2.88011 16.1652 2.56262 16.645 2.86924C18.716 4.19253 20.5164 5.89762 21.9502 7.89363L22.4063 8.52857C22.5315 8.70289 22.5315 8.93767 22.4063 9.11199L21.9502 9.74693C20.5163 11.7429 18.716 13.448 16.645 14.7713C16.2499 15.0238 15.7492 14.8531 15.5622 14.4678C15.5229 14.3859 15.4977 14.2915 15.4905 14.1925L15.4227 13.2619C15.3685 12.519 15.328 11.7754 15.301 11.0314L14.9469 10.9781C12.6907 10.6385 10.459 11.7273 9.33799 13.7145L8.43569 15.3141C8.39271 15.3902 8.33173 15.4518 8.26088 15.4951C8.14593 15.5653 8.00416 15.5881 7.8674 15.5504Z" fill="black"/>
</svg>
