<svg width="24" height="24" viewBox="0 0 24 24" fill="none" xmlns="http://www.w3.org/2000/svg">
<path d="M19.8067 5.68672C20.1049 5.93234 20.3531 6.23695 20.5335 6.58375C20.5905 6.69348 20.5478 6.82634 20.4426 6.89145L14.1766 10.7704C12.8328 11.6023 11.1383 11.6198 9.77753 10.8157L3.46971 7.08834C3.3678 7.02812 3.32102 6.90416 3.36695 6.79506C3.54955 6.36128 3.83414 5.98302 4.19016 5.68898L4.18982 5.686L4.20208 5.67918C4.46553 5.46395 4.76756 5.29459 5.09597 5.18258L9.20584 2.89932C10.9425 1.93452 13.0541 1.93452 14.7907 2.89932L18.8958 5.1799C19.2299 5.29279 19.537 5.46499 19.804 5.68448L19.8067 5.68672Z" fill="black"/>
<path d="M2.98867 8.95415C3.00685 8.77391 3.20585 8.67473 3.36181 8.76689L9.01444 12.1071C10.8554 13.1949 13.148 13.1713 14.9662 12.0458L20.6107 8.55152C20.766 8.45542 20.9684 8.55277 20.988 8.73429C21.268 11.3217 21.2143 13.9363 20.8268 16.5133C20.6282 17.8335 19.5508 18.8455 18.2209 18.9611L16.7107 19.0924C13.576 19.3649 10.4236 19.3649 7.289 19.0924L5.77877 18.9611C4.44882 18.8455 3.37141 17.8335 3.1729 16.5133C2.79634 14.0092 2.73493 11.4698 2.98867 8.95415Z" fill="black"/>
</svg>
