<svg width="24" height="24" viewBox="0 0 24 24" fill="none" xmlns="http://www.w3.org/2000/svg">
<path fill-rule="evenodd" clip-rule="evenodd" d="M1.39332 13.2524C0.573971 12.6184 0.57397 11.3814 1.39332 10.7474C3.55239 9.07684 5.96331 7.76006 8.53581 6.8464L9.00186 6.68088C10.0254 6.31736 11.1022 7.00984 11.2402 8.06192C11.3539 8.92893 11.4295 9.80779 11.4671 10.6906C13.6073 9.04693 15.9926 7.74967 18.5358 6.8464L19.0019 6.68088C20.0254 6.31736 21.1022 7.00984 21.2402 8.06192C21.5798 10.652 21.5798 13.3479 21.2402 15.9379C21.1022 16.99 20.0254 17.6825 19.0019 17.319L18.5358 17.1535C15.9926 16.2502 13.6073 14.9529 11.4671 13.3093C11.4295 14.1921 11.3539 15.0709 11.2402 15.9379C11.1022 16.99 10.0254 17.6825 9.00186 17.319L8.53581 17.1535C5.9633 16.2398 3.5524 14.923 1.39332 13.2524ZM2.31126 11.9338C2.26799 11.9673 2.26799 12.0326 2.31126 12.0661C4.34461 13.6394 6.61513 14.8795 9.03783 15.74L9.50388 15.9055C9.60408 15.9411 9.73581 15.8732 9.7529 15.7429C10.0756 13.2823 10.0756 10.7176 9.7529 8.25697C9.73581 8.12667 9.60408 8.05878 9.50388 8.09437L9.03783 8.2599C6.61513 9.12035 4.34461 10.3605 2.31126 11.9338ZM12.3113 11.9338C12.268 11.9673 12.268 12.0326 12.3113 12.0661C14.3446 13.6394 16.6151 14.8795 19.0378 15.74L19.5039 15.9055C19.6041 15.9411 19.7358 15.8732 19.7529 15.7429C20.0756 13.2823 20.0756 10.7176 19.7529 8.25697C19.7358 8.12667 19.6041 8.05878 19.5039 8.09437L19.0378 8.2599C16.6151 9.12035 14.3446 10.3605 12.3113 11.9338Z" fill="black"/>
</svg>
