<svg width="24" height="24" viewBox="0 0 24 24" fill="none" xmlns="http://www.w3.org/2000/svg">
<path fill-rule="evenodd" clip-rule="evenodd" d="M6.71181 3.97081C10.2303 3.65621 13.7699 3.65621 17.2885 3.97081L18.8058 4.10648C20.3182 4.2417 21.5401 5.39708 21.7598 6.89951C22.2543 10.2818 22.2543 13.7181 21.7598 17.1004C21.5401 18.6029 20.3182 19.7582 18.8058 19.8935L17.2885 20.0291C13.7699 20.3437 10.2303 20.3437 6.71181 20.0291L5.19447 19.8935C3.6821 19.7582 2.46015 18.6029 2.2405 17.1004C1.74601 13.7181 1.74601 10.2818 2.2405 6.89951C2.46015 5.39708 3.6821 4.2417 5.19447 4.10648L6.71181 3.97081ZM5.8557 6.83962C5.62327 6.71446 5.34216 6.72072 5.11553 6.85608C4.8889 6.99145 4.75012 7.23599 4.75012 7.49997V17C4.75012 17.4142 5.08591 17.75 5.50012 17.75C5.91434 17.75 6.25012 17.4142 6.25012 17V8.75563L11.6445 11.6603C11.8665 11.7799 12.1337 11.7799 12.3557 11.6603L17.7501 8.75563V17C17.7501 17.4142 18.0859 17.75 18.5001 17.75C18.9143 17.75 19.2501 17.4142 19.2501 17V7.49997C19.2501 7.23599 19.1113 6.99145 18.8847 6.85608C18.6581 6.72072 18.377 6.71446 18.1445 6.83962L12.0001 10.1482L5.8557 6.83962Z" fill="black"/>
</svg>
