<svg width="24" height="24" viewBox="0 0 24 24" fill="none" xmlns="http://www.w3.org/2000/svg">
<path d="M7.25018 7.59998C7.25018 8.56647 8.03368 9.34998 9.00018 9.34998H15.0002C15.9667 9.34998 16.7502 8.56647 16.7502 7.59998V4.27627C16.7502 4.12369 16.8739 4 17.0265 4C17.1724 4 17.311 4.06373 17.406 4.17448L20.3686 7.62867C20.7792 8.1074 20.9937 8.72364 20.9691 9.35387L20.6275 18.0976C20.5751 19.4393 19.4721 20.5 18.1294 20.5H17.7502C17.474 20.5 17.2502 20.2761 17.2502 20V15C17.2502 14.0335 16.4667 13.25 15.5002 13.25H8.50018C7.53368 13.25 6.75018 14.0335 6.75018 15V20C6.75018 20.2761 6.52633 20.5 6.25018 20.5H6.11309C4.90927 20.5 3.89294 19.6055 3.74007 18.4114C3.24616 14.5534 3.22488 10.6495 3.67671 6.78632L3.7376 6.26575C3.88869 4.97395 4.98319 4 6.28379 4H6.75018C7.02633 4 7.25018 4.22386 7.25018 4.5V7.59998Z" fill="black"/>
<path d="M8.25018 20C8.25018 20.2761 8.47404 20.5 8.75018 20.5H15.2502C15.5263 20.5 15.7502 20.2761 15.7502 20V15C15.7502 14.8619 15.6383 14.75 15.5002 14.75H8.50018C8.36211 14.75 8.25018 14.8619 8.25018 15V20Z" fill="black"/>
<path d="M15.2502 4.5C15.2502 4.22386 15.0263 4 14.7502 4H9.25018C8.97404 4 8.75018 4.22386 8.75018 4.5V7.59998C8.75018 7.73805 8.86211 7.84998 9.00018 7.84998H15.0002C15.1383 7.84998 15.2502 7.73805 15.2502 7.59998V4.5Z" fill="black"/>
</svg>
