<svg width="24" height="24" viewBox="0 0 24 24" fill="none" xmlns="http://www.w3.org/2000/svg">
<path fill-rule="evenodd" clip-rule="evenodd" d="M5.62554 9.63124L5.30631 6.75816C5.26587 6.39418 5.26587 6.02684 5.30631 5.66286L5.32908 5.45796C5.57056 3.28457 7.27917 1.56492 9.45095 1.30941C9.81578 1.26649 10.1844 1.26649 10.5492 1.30941C12.721 1.56492 14.4296 3.28458 14.6711 5.45797L14.6938 5.66286C14.7343 6.02684 14.7343 6.39418 14.6938 6.75816L14.4129 9.28682C14.393 9.46552 14.2561 9.60783 14.08 9.64411C13.0844 9.84926 12.166 10.2658 11.3739 10.8448C11.2997 10.899 11.21 10.9281 11.1182 10.9256C9.55165 10.8828 7.9833 10.93 6.42085 11.0672L5.2864 11.1668C4.76167 11.2129 4.33698 11.6127 4.25942 12.1338C3.9272 14.3656 3.9272 16.6343 4.25942 18.8662C4.33698 19.3872 4.76167 19.7871 5.2864 19.8332L6.42085 19.9328C7.36691 20.0159 8.31513 20.0659 9.26381 20.083C9.40274 20.0855 9.5301 20.1596 9.60517 20.2765C9.82391 20.6172 10.0714 20.9378 10.3442 21.2347C10.4655 21.3667 10.3771 21.5883 10.1979 21.5892C8.89395 21.5953 7.58982 21.5412 6.28964 21.427L5.15519 21.3274C3.93943 21.2206 2.95546 20.2942 2.77577 19.0871C2.42175 16.7088 2.42175 14.2912 2.77577 11.9129C2.95546 10.7058 3.93943 9.77931 5.15519 9.67255L5.62554 9.63124ZM9.62621 2.79914C9.8746 2.76992 10.1256 2.76992 10.3739 2.79914C11.8526 2.97309 13.0158 4.1439 13.1802 5.62361L13.203 5.82851C13.2312 6.08239 13.2312 6.33862 13.203 6.59251L12.8791 9.50814C10.962 9.37772 9.0382 9.37772 7.12109 9.50814L6.79714 6.59251C6.76893 6.33862 6.76893 6.08239 6.79714 5.82851L6.8199 5.62361C6.98431 4.1439 8.14759 2.97309 9.62621 2.79914Z" fill="black"/>
<path d="M16.2501 15C16.2501 14.5858 15.9143 14.25 15.5001 14.25C15.0859 14.25 14.7501 14.5858 14.7501 15V16.7727C14.7501 17.0127 14.8649 17.2381 15.0589 17.3793L16.0589 18.1065C16.3939 18.3502 16.863 18.2761 17.1066 17.9411C17.3503 17.6061 17.2762 17.1371 16.9412 16.8934L16.2501 16.3908V15Z" fill="black"/>
<path fill-rule="evenodd" clip-rule="evenodd" d="M15.5001 22C18.5376 22 21.0001 19.5375 21.0001 16.5C21.0001 13.4624 18.5376 11 15.5001 11C12.4625 11 10.0001 13.4624 10.0001 16.5C10.0001 19.5375 12.4625 22 15.5001 22ZM15.5001 20.5C17.7092 20.5 19.5001 18.7091 19.5001 16.5C19.5001 14.2908 17.7092 12.5 15.5001 12.5C13.2909 12.5 11.5001 14.2908 11.5001 16.5C11.5001 18.7091 13.2909 20.5 15.5001 20.5Z" fill="black"/>
</svg>
