<svg width="24" height="24" viewBox="0 0 24 24" fill="none" xmlns="http://www.w3.org/2000/svg">
<path fill-rule="evenodd" clip-rule="evenodd" d="M5.30631 6.75816L5.65316 9.87978L5.17706 9.92159C4.07647 10.0182 3.18572 10.8569 3.02305 11.9497C2.67266 14.3036 2.67266 16.6964 3.02305 19.0502C3.18572 20.143 4.07647 20.9817 5.17706 21.0784L6.31151 21.178C7.5317 21.2851 8.75539 21.339 9.97911 21.3396C10.1541 21.3397 10.2452 21.1279 10.1327 20.9937C9.11365 19.7778 8.50008 18.2106 8.50008 16.5C8.50008 13.1205 10.8949 10.3004 14.08 9.64412C14.2561 9.60783 14.393 9.46552 14.4129 9.28682L14.6938 6.75815C14.7343 6.39418 14.7343 6.02684 14.6938 5.66286L14.6711 5.45797C14.4296 3.28458 12.721 1.56492 10.5492 1.30941C10.1844 1.26649 9.81578 1.26649 9.45095 1.30941C7.27917 1.56492 5.57056 3.28457 5.32908 5.45796L5.30631 5.66286C5.26587 6.02684 5.26587 6.39418 5.30631 6.75816ZM10.3739 2.79914C10.1256 2.76992 9.8746 2.76992 9.62621 2.79914C8.14759 2.97309 6.98431 4.1439 6.8199 5.62361L6.79714 5.82851C6.76893 6.08239 6.76893 6.33862 6.79714 6.59251L7.14873 9.75684C9.04745 9.62815 10.9527 9.62815 12.8514 9.75684L13.203 6.59251C13.2312 6.33862 13.2312 6.08239 13.203 5.82851L13.1802 5.62361C13.0158 4.1439 11.8526 2.97309 10.3739 2.79914Z" fill="black"/>
<path d="M16.2501 15C16.2501 14.5858 15.9143 14.25 15.5001 14.25C15.0859 14.25 14.7501 14.5858 14.7501 15V16.7727C14.7501 17.0127 14.8649 17.2381 15.0589 17.3793L16.0589 18.1065C16.3939 18.3502 16.863 18.2761 17.1066 17.9411C17.3503 17.6061 17.2762 17.1371 16.9412 16.8934L16.2501 16.3908V15Z" fill="black"/>
<path fill-rule="evenodd" clip-rule="evenodd" d="M15.5001 22C18.5376 22 21.0001 19.5375 21.0001 16.5C21.0001 13.4624 18.5376 11 15.5001 11C12.4625 11 10.0001 13.4624 10.0001 16.5C10.0001 19.5375 12.4625 22 15.5001 22ZM15.5001 20.5C17.7092 20.5 19.5001 18.7091 19.5001 16.5C19.5001 14.2908 17.7092 12.5 15.5001 12.5C13.2909 12.5 11.5001 14.2908 11.5001 16.5C11.5001 18.7091 13.2909 20.5 15.5001 20.5Z" fill="black"/>
</svg>
