<svg width="24" height="24" viewBox="0 0 24 24" fill="none" xmlns="http://www.w3.org/2000/svg">
<path fill-rule="evenodd" clip-rule="evenodd" d="M6.76972 3.08151C10.2178 2.69614 13.7825 2.69614 17.2307 3.08151C19.1291 3.29369 20.6603 4.78947 20.8831 6.69452C21.2954 10.2195 21.2954 13.7806 20.8831 17.3056C20.6603 19.2106 19.1291 20.7064 17.2307 20.9186C13.7825 21.304 10.2178 21.304 6.76972 20.9186C4.87132 20.7064 3.34013 19.2106 3.11732 17.3056C2.70504 13.7806 2.70504 10.2195 3.11732 6.69452C3.34013 4.78947 4.87132 3.29369 6.76972 3.08151ZM8.37128 15.5V8.08603H9.72428V15.5H8.37128ZM12.2051 15.5H10.8411V11.738C10.8411 11.122 10.8301 10.605 10.7971 10.143H11.9851L12.0511 10.946H12.0841C12.3151 10.528 12.8981 10.022 13.7891 10.022C14.7241 10.022 15.6921 10.627 15.6921 12.321V15.5H14.3391V12.475C14.3391 11.705 14.0531 11.122 13.3161 11.122C12.7771 11.122 12.4031 11.507 12.2601 11.914C12.2161 12.035 12.2051 12.2 12.2051 12.354V15.5Z" fill="black"/>
</svg>
