<svg width="24" height="24" viewBox="0 0 24 24" fill="none" xmlns="http://www.w3.org/2000/svg">
<path d="M16.5751 7.25003C16.6369 7.59473 16.557 7.93086 16.2368 7.96109L15.7056 8.05698L15.4848 16.374C15.017 16.6242 14.5913 16.7615 14.2399 16.7493C13.6732 16.7296 13.5365 16.5344 13.1295 15.9535L9.82427 10.0074L9.67468 15.6431L10.7626 15.9474C10.7626 15.9474 10.7445 16.6282 9.86208 16.5975L7.42263 16.6648C7.35581 16.5103 7.43674 16.1329 7.68693 16.0686L8.32676 15.9004L8.52449 8.45081L7.64405 8.34411C7.58228 7.99941 7.7727 7.51503 8.26623 7.49448L10.8835 7.39512L14.3282 13.4217L14.4668 8.20066L13.5516 8.05443C13.4918 7.63739 13.7804 7.34321 14.1356 7.32029L16.5751 7.25003Z" fill="black"/>
<path fill-rule="evenodd" clip-rule="evenodd" d="M17.2584 2.83306C13.7919 2.44562 10.2085 2.44562 6.74195 2.83306C4.7299 3.05794 3.10556 4.64295 2.86901 6.66548C2.45447 10.2098 2.45447 13.7903 2.86901 17.3346C3.10556 19.3571 4.7299 20.9422 6.74195 21.167C10.2085 21.5545 13.7919 21.5545 17.2584 21.167C19.2705 20.9422 20.8948 19.3571 21.1314 17.3346C21.5459 13.7903 21.5459 10.2098 21.1314 6.66548C20.8948 4.64295 19.2705 3.05794 17.2584 2.83306ZM6.90856 4.32378C10.2644 3.94871 13.736 3.94871 17.0918 4.32378C18.4219 4.47244 19.4874 5.52205 19.6415 6.83973C20.0425 10.2683 20.0425 13.7318 19.6415 17.1604C19.4874 18.478 18.4219 19.5277 17.0918 19.6763C13.736 20.0514 10.2644 20.0514 6.90856 19.6763C5.57846 19.5277 4.51297 18.478 4.35885 17.1604C3.95786 13.7318 3.95786 10.2683 4.35885 6.83973C4.51297 5.52205 5.57845 4.47244 6.90856 4.32378Z" fill="black"/>
</svg>
