<svg width="24" height="24" viewBox="0 0 24 24" fill="none" xmlns="http://www.w3.org/2000/svg">
<path d="M16.4767 3.00356C16.6443 3.01949 16.7166 3.22296 16.5976 3.34199L8.27746 11.6621C8.18323 11.7563 8.11581 11.8739 8.08213 12.0029L7.08213 15.8313C7.01484 16.0889 7.08918 16.3629 7.27746 16.5512C7.46573 16.7395 7.73971 16.8138 7.99733 16.7465L11.8258 15.7465C11.9547 15.7128 12.0723 15.6454 12.1665 15.5512L20.6045 7.11325C20.7229 6.99486 20.9253 7.06569 20.9427 7.2322C21.2943 10.5814 21.2744 13.9597 20.8831 17.3056C20.6603 19.2106 19.1291 20.7064 17.2307 20.9186C13.7825 21.304 10.2178 21.304 6.76972 20.9186C4.87132 20.7064 3.34013 19.2106 3.11732 17.3056C2.70504 13.7806 2.70504 10.2195 3.11732 6.69452C3.34013 4.78947 4.87132 3.29369 6.76972 3.08151C9.96711 2.72416 13.2647 2.69817 16.4767 3.00356Z" fill="black"/>
<path d="M17.8235 4.23732C17.9211 4.13988 18.0792 4.13988 18.1768 4.23732L19.5912 5.65168C19.6888 5.74931 19.6888 5.9076 19.5912 6.00523L11.2977 14.2987C11.2665 14.3299 11.2269 14.3525 11.1841 14.3638L9.26973 14.8638C9.08509 14.9119 8.91694 14.7433 8.96487 14.5587L9.46487 12.6445C9.47609 12.6015 9.49857 12.5623 9.52998 12.5309L17.8235 4.23732Z" fill="black"/>
</svg>
