<svg width="24" height="24" viewBox="0 0 24 24" fill="none" xmlns="http://www.w3.org/2000/svg">
<path fill-rule="evenodd" clip-rule="evenodd" d="M11.2485 15.5L10.5775 13.399H8.22348L7.58548 15.5H6.18848L8.56448 8.08603H10.2915L12.7005 15.5H11.2485ZM9.01548 10.55L8.44348 12.376H10.3465L9.76348 10.55C9.64774 10.185 9.54641 9.78396 9.45366 9.41686C9.43182 9.3304 9.41045 9.24581 9.38948 9.16403H9.36748C9.32979 9.31102 9.2921 9.46834 9.25352 9.62936C9.17951 9.93828 9.10225 10.2608 9.01548 10.55Z" fill="black"/>
<path fill-rule="evenodd" clip-rule="evenodd" d="M17.684 12.629C17.684 12.882 17.662 13.08 17.64 13.201H14.054C14.087 14.169 14.846 14.587 15.704 14.587C16.331 14.587 16.782 14.499 17.189 14.345L17.387 15.28C16.925 15.467 16.287 15.621 15.517 15.621C13.779 15.621 12.756 14.543 12.756 12.904C12.756 11.419 13.658 10.022 15.374 10.022C17.123 10.022 17.684 11.452 17.684 12.629ZM15.297 10.946C14.461 10.946 14.109 11.705 14.054 12.255H16.408C16.419 11.76 16.199 10.946 15.297 10.946Z" fill="black"/>
<path fill-rule="evenodd" clip-rule="evenodd" d="M17.2584 2.83306C13.7919 2.44562 10.2085 2.44562 6.74195 2.83306C4.7299 3.05794 3.10556 4.64295 2.86901 6.66548C2.45447 10.2098 2.45447 13.7903 2.86901 17.3346C3.10556 19.3571 4.7299 20.9422 6.74195 21.167C10.2085 21.5545 13.7919 21.5545 17.2584 21.167C19.2705 20.9422 20.8948 19.3571 21.1314 17.3346C21.5459 13.7903 21.5459 10.2098 21.1314 6.66548C20.8948 4.64295 19.2705 3.05794 17.2584 2.83306ZM6.90856 4.32378C10.2644 3.94871 13.736 3.94871 17.0918 4.32378C18.4219 4.47244 19.4874 5.52205 19.6415 6.83973C20.0425 10.2683 20.0425 13.7318 19.6415 17.1604C19.4874 18.478 18.4219 19.5277 17.0918 19.6763C13.736 20.0514 10.2644 20.0514 6.90856 19.6763C5.57846 19.5277 4.51297 18.478 4.35885 17.1604C3.95786 13.7318 3.95786 10.2683 4.35885 6.83973C4.51297 5.52205 5.57845 4.47244 6.90856 4.32378Z" fill="black"/>
</svg>
