<svg width="24" height="24" viewBox="0 0 24 24" fill="none" xmlns="http://www.w3.org/2000/svg">
<path fill-rule="evenodd" clip-rule="evenodd" d="M14.4949 3.25001L14.4904 3.25H9.51001L9.50549 3.25001H8.50021C8.086 3.25001 7.75021 3.5858 7.75021 4.00001C7.75021 4.41423 8.086 4.75001 8.50021 4.75001H8.76001V9.83701C8.76001 11.2914 8.3226 12.7121 7.50461 13.9147L4.41082 18.4629C3.62517 19.6179 4.3494 21.194 5.73751 21.3502L5.82388 21.3598L5.84084 21.3618C9.93418 21.8223 14.0663 21.8223 18.1596 21.3618L18.1768 21.3598L18.2629 21.3502C19.651 21.194 20.3753 19.6179 19.5896 18.4629L16.4958 13.9147C15.6778 12.7121 15.2404 11.2914 15.2404 9.83701V4.75001H15.5002C15.9144 4.75001 16.2502 4.41423 16.2502 4.00001C16.2502 3.5858 15.9144 3.25001 15.5002 3.25001H14.4949ZM9.8288 12.55H14.1716C13.8875 11.6788 13.7404 10.7636 13.7404 9.83701V4.75001H10.26V9.83701C10.26 10.7636 10.1129 11.6788 9.8288 12.55ZM10.0002 17C9.44793 17 9.00021 17.4477 9.00021 18C9.00021 18.5523 9.44793 19 10.0002 19C10.5525 19 11.0002 18.5523 11.0002 18C11.0002 17.4477 10.5525 17 10.0002 17ZM12.0002 16C12.0002 15.4477 12.4479 15 13.0002 15C13.5525 15 14.0002 15.4477 14.0002 16C14.0002 16.5523 13.5525 17 13.0002 17C12.4479 17 12.0002 16.5523 12.0002 16Z" fill="black"/>
</svg>
