<svg width="24" height="24" viewBox="0 0 24 24" fill="none" xmlns="http://www.w3.org/2000/svg">
<path fill-rule="evenodd" clip-rule="evenodd" d="M6.76972 3.08151C10.2178 2.69614 13.7825 2.69614 17.2307 3.08151C19.1291 3.29369 20.6603 4.78947 20.8831 6.69452C21.2954 10.2195 21.2954 13.7806 20.8831 17.3056C20.6603 19.2106 19.1291 20.7064 17.2307 20.9186C13.7825 21.304 10.2178 21.304 6.76972 20.9186C4.87132 20.7064 3.34013 19.2106 3.11732 17.3056C2.70504 13.7806 2.70504 10.2195 3.11732 6.69452C3.34013 4.78947 4.87132 3.29369 6.76972 3.08151ZM12.7283 15.5H8.32831V8.08603H9.68131V14.367H12.7283V15.5ZM14.6111 15.5H13.2581V11.87C13.2581 11.144 13.2471 10.627 13.2141 10.143H14.3911L14.4351 11.166H14.4791C14.7431 10.407 15.3701 10.022 15.9421 10.022C16.0741 10.022 16.1511 10.033 16.2611 10.055V11.331C16.1511 11.309 16.0301 11.287 15.8651 11.287C15.2161 11.287 14.7761 11.705 14.6551 12.31C14.6331 12.431 14.6111 12.574 14.6111 12.728V15.5Z" fill="black"/>
</svg>
