<svg width="24" height="24" viewBox="0 0 24 24" fill="none" xmlns="http://www.w3.org/2000/svg">
<path d="M11.9998 10.75C12.414 10.75 12.7498 11.0858 12.7498 11.5V16.5C12.7498 16.9142 12.414 17.25 11.9998 17.25C11.5855 17.25 11.2498 16.9142 11.2498 16.5L11.2498 11.5C11.2498 11.0858 11.5855 10.75 11.9998 10.75Z" fill="black"/>
<path d="M11.9998 9.00001C12.552 9.00001 12.9998 8.55229 12.9998 8.00001C12.9998 7.44772 12.552 7.00001 11.9998 7.00001C11.4475 7.00001 10.9998 7.44772 10.9998 8.00001C10.9998 8.55229 11.4475 9.00001 11.9998 9.00001Z" fill="black"/>
<path fill-rule="evenodd" clip-rule="evenodd" d="M7.31649 3.76876C10.404 3.42368 13.5954 3.42368 16.683 3.76876C18.5094 3.97288 19.9843 5.41153 20.1991 7.24849C20.5683 10.4054 20.5683 13.5946 20.1991 16.7515C19.9843 18.5885 18.5094 20.0271 16.683 20.2313C13.5954 20.5763 10.404 20.5763 7.31649 20.2313C5.49011 20.0271 4.01521 18.5885 3.80036 16.7515C3.43113 13.5946 3.43113 10.4054 3.80036 7.24849C4.01521 5.41153 5.49011 3.97288 7.31649 3.76876ZM16.5164 5.25948C13.5396 4.92677 10.4599 4.92677 7.4831 5.25948C6.33867 5.38738 5.42262 6.29063 5.29021 7.42274C4.93451 10.4639 4.93451 13.5361 5.29021 16.5773C5.42262 17.7094 6.33867 18.6126 7.4831 18.7405C10.4599 19.0732 13.5396 19.0732 16.5164 18.7405C17.6608 18.6126 18.5769 17.7094 18.7093 16.5773C19.065 13.5361 19.065 10.4639 18.7093 7.42274C18.5769 6.29063 17.6608 5.38738 16.5164 5.25948Z" fill="black"/>
</svg>
