<svg width="24" height="24" viewBox="0 0 24 24" fill="none" xmlns="http://www.w3.org/2000/svg">
<path fill-rule="evenodd" clip-rule="evenodd" d="M19.9604 1.75C19.0865 1.75 18.3244 2.22861 17.9219 2.93801L14.3216 2.19949C13.972 2.12777 13.6203 2.31236 13.4807 2.64083C13.0699 3.60742 12.4534 5.07237 11.9392 6.32585C11.7127 6.87797 11.5049 7.39196 11.3428 7.80535C9.42521 7.89837 7.65082 8.39583 6.18623 9.1904C5.62848 8.43248 4.73015 7.94 3.71569 7.94C2.0225 7.94 0.649902 9.3126 0.649902 11.0058C0.649902 12.2165 1.35116 13.2621 2.36915 13.7606C2.28224 14.1452 2.23669 14.5415 2.23669 14.9474C2.23669 16.9879 3.38832 18.7893 5.15799 20.0612C6.92845 21.3337 9.34902 22.1052 11.9999 22.1052C14.6507 22.1052 17.0713 21.3337 18.8417 20.0612C20.6114 18.7893 21.763 16.9879 21.763 14.9474C21.763 14.5416 21.7175 14.1452 21.6306 13.7606C22.6483 13.2623 23.3499 12.2167 23.3499 11.0058C23.3499 9.3126 21.9773 7.94 20.2841 7.94C19.2696 7.94 18.3713 8.4325 17.8135 9.19043C16.4238 8.43648 14.7552 7.95003 12.9499 7.82278C13.0643 7.53798 13.1918 7.22454 13.327 6.89516C13.7459 5.87394 14.2339 4.7095 14.6218 3.79229L17.6399 4.41138C17.7956 5.55385 18.7752 6.43421 19.9604 6.43421C21.2539 6.43421 22.3025 5.38561 22.3025 4.0921C22.3025 2.7986 21.2539 1.75 19.9604 1.75ZM19.1183 4.0921C19.1183 3.62702 19.4953 3.25 19.9604 3.25C20.4255 3.25 20.8025 3.62702 20.8025 4.0921C20.8025 4.55719 20.4255 4.93421 19.9604 4.93421C19.4953 4.93421 19.1183 4.55719 19.1183 4.0921ZM21.1004 12.3424C20.6317 11.4592 19.9348 10.669 19.0768 10.0084C19.3644 9.66089 19.7989 9.44 20.2841 9.44C21.1489 9.44 21.8499 10.141 21.8499 11.0058C21.8499 11.5708 21.5503 12.067 21.1004 12.3424ZM4.92294 10.0084C4.63539 9.66087 4.20085 9.44 3.71569 9.44C2.85093 9.44 2.1499 10.141 2.1499 11.0058C2.1499 11.5709 2.4497 12.0671 2.8993 12.3424C3.36809 11.4592 4.06498 10.669 4.92294 10.0084ZM15.5373 14.9473C16.3366 14.9473 16.9846 14.2993 16.9846 13.5C16.9846 12.7006 16.3366 12.0526 15.5373 12.0526C14.7379 12.0526 14.0899 12.7006 14.0899 13.5C14.0899 14.2993 14.7379 14.9473 15.5373 14.9473ZM9.90462 13.5C9.90462 14.2993 9.25662 14.9473 8.45726 14.9473C7.6579 14.9473 7.00989 14.2993 7.00989 13.5C7.00989 12.7006 7.6579 12.0526 8.45726 12.0526C9.25662 12.0526 9.90462 12.7006 9.90462 13.5ZM8.85001 16.6288C8.49967 16.4078 8.03652 16.5127 7.81553 16.863C7.59453 17.2134 7.69939 17.6765 8.04972 17.8975L8.39465 18.1151C10.5949 19.503 13.3969 19.503 15.5972 18.1151L15.9421 17.8975C16.2924 17.6765 16.3973 17.2134 16.1763 16.863C15.9553 16.5127 15.4922 16.4078 15.1418 16.6288L14.7969 16.8464C13.0856 17.9259 10.9062 17.9259 9.19493 16.8464L8.85001 16.6288Z" fill="black"/>
</svg>
