<svg width="24" height="24" viewBox="0 0 24 24" fill="none" xmlns="http://www.w3.org/2000/svg">
<path d="M9.87753 3.15292C9.95841 3.04847 9.87454 2.89803 9.74316 2.91192L6.24065 3.28225C6.15807 3.29098 6.0983 3.36514 6.10731 3.44769L6.50461 7.08778C6.51925 7.22191 6.68972 7.27002 6.77232 7.16334L9.87753 3.15292Z" fill="black"/>
<path d="M17.224 7.16334C17.3066 7.27003 17.4771 7.22192 17.4918 7.08779L17.8891 3.44768C17.8981 3.36513 17.8383 3.29096 17.7558 3.28223L14.2532 2.91191C14.1218 2.89802 14.038 3.04845 14.1188 3.15291L17.224 7.16334Z" fill="black"/>
<path d="M7.83595 8.63479C7.71128 8.63479 7.64102 8.49153 7.71735 8.39295L11.8796 3.01736C11.9396 2.9398 12.0567 2.9398 12.1168 3.01736L16.2789 8.39295C16.3553 8.49153 16.285 8.63479 16.1603 8.63479H7.83595Z" fill="black"/>
<path d="M8.99357 18.261C9.06127 18.4188 8.85378 18.5481 8.74193 18.4179L1.84167 10.3826C1.75813 10.2853 1.82725 10.1349 1.95547 10.1349H5.40769C5.46767 10.1349 5.52188 10.1706 5.54553 10.2257L8.99357 18.261Z" fill="black"/>
<path d="M18.5887 10.1349C18.5287 10.1349 18.4745 10.1706 18.4508 10.2257L15.0027 18.2611C14.935 18.4189 15.1425 18.5483 15.2544 18.418L22.1547 10.3826C22.2383 10.2853 22.1692 10.1349 22.0409 10.1349H18.5887Z" fill="black"/>
<path d="M18.85 8.46861C18.8403 8.55737 18.9098 8.63489 18.9991 8.63489L21.7787 8.63488C21.9021 8.63488 21.9727 8.49422 21.899 8.39528L19.4747 5.14082C19.3933 5.03152 19.2201 5.07867 19.2053 5.21415L18.85 8.46861Z" fill="black"/>
<path d="M4.79117 5.2143C4.77638 5.07881 4.60318 5.03166 4.52176 5.14096L2.09752 8.39528C2.02381 8.49422 2.09443 8.63488 2.21781 8.63488H4.99721C5.08649 8.63488 5.15601 8.55737 5.14632 8.46861L4.79117 5.2143Z" fill="black"/>
<path d="M7.2286 10.344C7.18612 10.245 7.25873 10.1349 7.36645 10.1349H16.6299C16.7376 10.1349 16.8102 10.245 16.7677 10.344L12.136 21.1378C12.0841 21.2589 11.9123 21.2589 11.8604 21.1378L7.2286 10.344Z" fill="black"/>
</svg>
