<svg width="24" height="24" viewBox="0 0 24 24" fill="none" xmlns="http://www.w3.org/2000/svg">
<path d="M11.7032 5.61564C11.7324 4.71122 11.9815 3.37888 12.8485 2.5036C13.6533 1.69111 14.633 1.29513 15.2432 1.1141C15.4788 1.04422 15.7048 1.22186 15.6932 1.46731C15.6523 2.33311 15.4247 3.6245 14.8373 4.31632C14.2836 4.96848 13.3929 5.83329 12.0882 5.9788C11.8746 6.00262 11.6963 5.8304 11.7032 5.61564Z" fill="black"/>
<path d="M13.9373 22.1695C14.5638 22.4095 15.1972 22.6522 15.7705 22.6522C16.9969 22.6522 20.568 19.8226 20.6966 16.8838C20.7032 16.7329 20.6131 16.5981 20.4812 16.5243C19.5729 16.016 18.0895 14.7503 18.0379 12.909C17.9777 10.7632 19.0551 9.05879 19.8705 8.35376C20.0541 8.19509 20.1171 7.91531 19.9533 7.73638C19.2114 6.92618 17.7188 5.81172 16.357 5.83908C15.3663 5.85898 14.4736 6.22803 13.7077 6.54472C13.12 6.78768 12.6069 6.99982 12.1812 6.99982C11.778 6.99982 11.294 6.78904 10.7385 6.54713C9.99039 6.22134 9.1126 5.83908 8.12793 5.83908C6.30399 5.83908 2.7002 7.35156 2.7002 13.1904C2.70019 16.2857 5.89555 22.7343 8.59191 22.6522C9.17414 22.6522 9.79638 22.4111 10.4138 22.1719C11.0218 21.9363 11.6252 21.7025 12.1812 21.7025C12.718 21.7025 13.3243 21.9347 13.9373 22.1695Z" fill="black"/>
</svg>
