<svg width="24" height="24" viewBox="0 0 24 24" fill="none" xmlns="http://www.w3.org/2000/svg">
<path d="M9.01548 10.55L8.44348 12.376H10.3465L9.76348 10.55C9.64774 10.185 9.54641 9.78396 9.45366 9.41686C9.43182 9.3304 9.41045 9.24581 9.38948 9.16403H9.36748C9.32979 9.31102 9.2921 9.46834 9.25352 9.62936C9.17951 9.93828 9.10225 10.2608 9.01548 10.55Z" fill="black"/>
<path d="M15.297 10.946C14.461 10.946 14.109 11.705 14.054 12.255H16.408C16.419 11.76 16.199 10.946 15.297 10.946Z" fill="black"/>
<path fill-rule="evenodd" clip-rule="evenodd" d="M6.76972 3.08151C10.2178 2.69614 13.7825 2.69614 17.2307 3.08151C19.1291 3.29369 20.6603 4.78947 20.8831 6.69452C21.2954 10.2195 21.2954 13.7806 20.8831 17.3056C20.6603 19.2106 19.1291 20.7064 17.2307 20.9186C13.7825 21.304 10.2178 21.304 6.76972 20.9186C4.87132 20.7064 3.34013 19.2106 3.11732 17.3056C2.70504 13.7806 2.70504 10.2195 3.11732 6.69452C3.34013 4.78947 4.87132 3.29369 6.76972 3.08151ZM11.2485 15.5L10.5775 13.399H8.22348L7.58548 15.5H6.18848L8.56448 8.08603H10.2915L12.7005 15.5H11.2485ZM17.684 12.629C17.684 12.882 17.662 13.08 17.64 13.201H14.054C14.087 14.169 14.846 14.587 15.704 14.587C16.331 14.587 16.782 14.499 17.189 14.345L17.387 15.28C16.925 15.467 16.287 15.621 15.517 15.621C13.779 15.621 12.756 14.543 12.756 12.904C12.756 11.419 13.658 10.022 15.374 10.022C17.123 10.022 17.684 11.452 17.684 12.629Z" fill="black"/>
</svg>
