<svg width="24" height="24" viewBox="0 0 24 24" fill="none" xmlns="http://www.w3.org/2000/svg">
<path d="M21.0301 4.83038C21.323 4.53749 21.323 4.06261 21.0301 3.76972C20.7373 3.47683 20.2624 3.47683 19.9695 3.76972L3.96949 19.7697C3.67659 20.0626 3.67659 20.5375 3.96949 20.8304C4.26238 21.1233 4.73725 21.1233 5.03015 20.8304L7.11047 18.7501H18.5231C20.996 18.7501 23.0006 16.7454 23.0006 14.2725C23.0006 11.7996 20.996 9.79493 18.5231 9.79493C18.4591 9.79493 18.3953 9.79628 18.3319 9.79895C18.2942 9.15027 18.1422 8.53227 17.8957 7.96479L21.0301 4.83038Z" fill="black"/>
<path d="M12.9317 4.70837C14.0386 4.70837 15.0679 5.04083 15.925 5.61134C16.0519 5.69579 16.0647 5.87451 15.9569 5.9823L4.09622 17.843C4.01647 17.9227 3.89289 17.9397 3.79687 17.8805C2.11812 16.8462 0.999023 14.9911 0.999023 12.8747C0.999023 9.62976 3.62953 6.99925 6.87443 6.99925C7.39409 6.99925 7.89881 7.0669 8.37984 7.19408C9.34158 5.69979 11.0203 4.70837 12.9317 4.70837Z" fill="black"/>
</svg>
