<svg width="24" height="24" viewBox="0 0 24 24" fill="none" xmlns="http://www.w3.org/2000/svg">
<path d="M12.8647 2.99622C12.4794 2.33207 11.5203 2.33207 11.1349 2.99622L8.42083 7.67353C8.23045 8.00161 7.90141 8.22551 7.52634 8.28215L2.44003 9.05038C1.58575 9.17941 1.28609 10.258 1.95139 10.8092L5.74048 13.9484C6.09123 14.239 6.25615 14.6974 6.17094 15.1448L5.17978 20.35C5.02309 21.1728 5.88688 21.8121 6.62803 21.4219L11.4174 18.9C11.782 18.7081 12.2177 18.7081 12.5822 18.9L17.3716 21.4219C18.1128 21.8121 18.9765 21.1728 18.8199 20.35L17.8287 15.1448C17.7435 14.6974 17.9084 14.239 18.2591 13.9484L22.0482 10.8092C22.7135 10.258 22.4139 9.17941 21.5596 9.05038L16.4733 8.28215C16.0982 8.22551 15.7692 8.00161 15.5788 7.67353L12.8647 2.99622Z" fill="black"/>
</svg>
