<svg width="24" height="24" viewBox="0 0 24 24" fill="none" xmlns="http://www.w3.org/2000/svg">
<path fill-rule="evenodd" clip-rule="evenodd" d="M19.184 4.66612L11.9999 4.49982L4.8158 4.66612C3.36404 4.69563 2.13329 5.74215 1.87081 7.17028C1.28395 10.3634 1.28395 13.6367 1.87081 16.8298C2.13329 18.2579 3.36404 19.3044 4.81579 19.3339L11.9999 19.5002L19.184 19.3339C20.6357 19.3044 21.8665 18.2579 22.129 16.8298C22.7158 13.6367 22.7158 10.3634 22.129 7.17028C21.8665 5.74215 20.6357 4.69563 19.184 4.66612ZM20.9999 11C20.9999 11.5523 20.5522 12 19.9999 12H3.99988C3.44759 12 2.99988 11.5523 2.99988 11C2.99988 10.4477 3.44759 10 3.99988 10H19.9999C20.5522 10 20.9999 10.4477 20.9999 11Z" fill="black"/>
</svg>
