<svg width="24" height="24" viewBox="0 0 24 24" fill="none" xmlns="http://www.w3.org/2000/svg">
<path fill-rule="evenodd" clip-rule="evenodd" d="M5.39842 14.9446C7.8552 17.4014 11.7346 17.5685 14.3849 15.4458L19.5405 20.6014C19.8334 20.8943 20.3083 20.8943 20.6012 20.6014C20.8941 20.3085 20.8941 19.8337 20.6012 19.5408L15.4456 14.3851C17.5682 11.7349 17.4011 7.85544 14.9444 5.39866C12.3083 2.76262 8.03445 2.76262 5.39842 5.39866C2.76238 8.0347 2.76238 12.3086 5.39842 14.9446ZM7.69983 9.45007C7.28562 9.45007 6.94983 9.78586 6.94983 10.2001C6.94983 10.6143 7.28562 10.9501 7.69983 10.9501H12.6998C13.114 10.9501 13.4498 10.6143 13.4498 10.2001C13.4498 9.78586 13.114 9.45007 12.6998 9.45007H7.69983Z" fill="black"/>
</svg>
