<svg width="24" height="24" viewBox="0 0 24 24" fill="none" xmlns="http://www.w3.org/2000/svg">
<path fill-rule="evenodd" clip-rule="evenodd" d="M6.67014 4.75C6.67014 4.33579 7.00592 4 7.42014 4H10.2486C10.6628 4 10.9986 4.33579 10.9986 4.75C10.9986 5.16421 10.6628 5.5 10.2486 5.5H9.2308L11.8291 8.09835C11.9268 8.19598 12.0851 8.19598 12.1827 8.09835L16.0614 4.21967C16.3543 3.92678 16.8291 3.92678 17.122 4.21967C17.4149 4.51256 17.4149 4.98744 17.122 5.28033L13.2434 9.15901C12.5599 9.84243 11.4519 9.84243 10.7685 9.15901L8.17014 6.56066V7.57843C8.17014 7.99264 7.83435 8.32843 7.42014 8.32843C7.00592 8.32843 6.67014 7.99264 6.67014 7.57843V4.75Z" fill="black"/>
<path d="M18.4159 12.6506C14.1094 11.0543 9.35164 11.119 5.08173 12.8447L4.38708 13.1112C2.79783 13.7207 1.87756 15.3853 2.20648 17.0554L2.51452 18.6193C2.61467 19.1278 3.0867 19.4755 3.60202 19.4204L7.44984 19.0089C8.01501 18.9484 8.41622 18.4296 8.33261 17.8674L8.10242 16.3196C10.6269 15.4629 13.372 15.4629 15.8964 16.3196L15.6663 17.8674C15.5827 18.4296 15.9839 18.9484 16.549 19.0088L20.397 19.4204C20.9122 19.4755 21.3842 19.128 21.4844 18.6196L21.7949 17.0452C22.1263 15.3651 21.1933 13.6919 19.5898 13.0907L18.4177 12.6512L18.4159 12.6506Z" fill="black"/>
</svg>
