<svg width="24" height="24" viewBox="0 0 24 24" fill="none" xmlns="http://www.w3.org/2000/svg">
<path d="M13.0002 15C12.4479 15 12.0002 15.4477 12.0002 16C12.0002 16.5523 12.4479 17 13.0002 17C13.5525 17 14.0002 16.5523 14.0002 16C14.0002 15.4477 13.5525 15 13.0002 15Z" fill="black"/>
<path d="M10.0002 17C9.44793 17 9.00021 17.4477 9.00021 18C9.00021 18.5523 9.44793 19 10.0002 19C10.5525 19 11.0002 18.5523 11.0002 18C11.0002 17.4477 10.5525 17 10.0002 17Z" fill="black"/>
<path fill-rule="evenodd" clip-rule="evenodd" d="M14.4934 3.25001L14.4904 3.25H9.51001L9.50705 3.25001H8.50021C8.086 3.25001 7.75021 3.58579 7.75021 4.00001C7.75021 4.41422 8.086 4.75001 8.50021 4.75001H8.76001V9.83701C8.76001 11.2914 8.3226 12.7121 7.50461 13.9147L4.41082 18.4629C3.62517 19.6179 4.3494 21.194 5.73751 21.3502C9.89952 21.8184 14.1009 21.8184 18.2629 21.3502C19.651 21.194 20.3753 19.6179 19.5896 18.4629L16.4958 13.9147C15.6778 12.7121 15.2404 11.2914 15.2404 9.83701V4.75001H15.5002C15.9144 4.75001 16.2502 4.41422 16.2502 4.00001C16.2502 3.58579 15.9144 3.25001 15.5002 3.25001H14.4934ZM5.90521 19.8596C9.95577 20.3153 14.0447 20.3153 18.0952 19.8596C18.3611 19.8297 18.4998 19.5278 18.3493 19.3065L15.2556 14.7583C15.0353 14.4345 14.8379 14.0976 14.6641 13.75H9.33632C9.16255 14.0976 8.96514 14.4345 8.74487 14.7583L5.65108 19.3065C5.5006 19.5278 5.63932 19.8297 5.90521 19.8596ZM9.92072 12.25H14.0797C13.8558 11.4697 13.7404 10.6578 13.7404 9.83701V4.75L10.26 4.75001V9.83701C10.26 10.6578 10.1446 11.4697 9.92072 12.25Z" fill="black"/>
</svg>
