<svg width="24" height="24" viewBox="0 0 24 24" fill="none" xmlns="http://www.w3.org/2000/svg">
<path d="M9.8766 9.06504C9.5026 9.06504 9.2386 9.09804 9.0956 9.13104V11.639C9.2606 11.683 9.4806 11.694 9.7556 11.694C10.7676 11.694 11.3836 11.199 11.3836 10.33C11.3836 9.50504 10.8116 9.06504 9.8766 9.06504Z" fill="black"/>
<path fill-rule="evenodd" clip-rule="evenodd" d="M6.76972 3.08151C10.2178 2.69614 13.7825 2.69614 17.2307 3.08151C19.1291 3.29369 20.6603 4.78947 20.8831 6.69452C21.2954 10.2195 21.2954 13.7806 20.8831 17.3056C20.6603 19.2106 19.1291 20.7064 17.2307 20.9186C13.7825 21.304 10.2178 21.304 6.76972 20.9186C4.87132 20.7064 3.34013 19.2106 3.11732 17.3056C2.70504 13.7806 2.70504 10.2195 3.11732 6.69452C3.34013 4.78947 4.87132 3.29369 6.76972 3.08151ZM9.0956 15.5H7.7536V8.18504C8.2376 8.09704 8.9086 8.03104 9.8216 8.03104C10.8116 8.03104 11.5376 8.24004 12.0106 8.63604C12.4506 8.99904 12.7366 9.58204 12.7366 10.275C12.7366 10.979 12.5166 11.562 12.0986 11.958C11.5596 12.497 10.7126 12.75 9.7556 12.75C9.5026 12.75 9.2716 12.739 9.0956 12.706V15.5ZM14.4648 15.621C13.8158 15.621 13.2328 15.456 12.8368 15.236L13.1008 14.257C13.4088 14.444 13.9918 14.642 14.4758 14.642C15.0698 14.642 15.3338 14.4 15.3338 14.048C15.3338 13.685 15.1138 13.498 14.4538 13.267C13.4088 12.904 12.9688 12.332 12.9798 11.705C12.9798 10.759 13.7608 10.022 15.0038 10.022C15.5978 10.022 16.1148 10.176 16.4228 10.341L16.1588 11.298C15.9278 11.166 15.4988 10.99 15.0258 10.99C14.5418 10.99 14.2778 11.221 14.2778 11.551C14.2778 11.892 14.5308 12.057 15.2128 12.299C16.1808 12.651 16.6318 13.146 16.6428 13.938C16.6428 14.906 15.8838 15.621 14.4648 15.621Z" fill="black"/>
</svg>
