<svg width="24" height="24" viewBox="0 0 24 24" fill="none" xmlns="http://www.w3.org/2000/svg">
<path fill-rule="evenodd" clip-rule="evenodd" d="M16.0761 10.726V7.69003H17.4291V13.993C17.4291 14.543 17.4511 15.137 17.4731 15.5H16.2631L16.2081 14.653H16.1861C15.8671 15.247 15.2181 15.621 14.4371 15.621C13.1611 15.621 12.1491 14.532 12.1491 12.882C12.1381 11.089 13.2601 10.022 14.5471 10.022C15.2841 10.022 15.8121 10.33 16.0541 10.726H16.0761ZM16.0321 13.575C16.0651 13.454 16.0761 13.322 16.0761 13.179V12.376C16.0761 12.266 16.0651 12.134 16.0431 12.024C15.9221 11.496 15.4931 11.067 14.8771 11.067C14.0081 11.067 13.5241 11.837 13.5241 12.838C13.5241 13.817 14.0081 14.532 14.8661 14.532C15.4161 14.532 15.9001 14.158 16.0321 13.575Z" fill="black"/>
<path d="M9.9037 11.705L12.1587 15.5H10.5967L9.7937 14.026C9.4747 13.454 9.2657 13.058 9.0567 12.629H9.0237C8.8477 13.058 8.6497 13.454 8.3527 14.026L7.6157 15.5H6.0647L8.2647 11.749L6.1527 8.08603H7.7037L8.5067 9.61503C8.7487 10.077 8.9247 10.44 9.1227 10.858H9.1447C9.3427 10.396 9.4967 10.066 9.7277 9.61503L10.5197 8.08603H12.0707L9.9037 11.705Z" fill="black"/>
<path fill-rule="evenodd" clip-rule="evenodd" d="M17.2584 2.83306C13.7919 2.44562 10.2085 2.44562 6.74195 2.83306C4.7299 3.05794 3.10556 4.64295 2.86901 6.66548C2.45447 10.2098 2.45447 13.7903 2.86901 17.3346C3.10556 19.3571 4.7299 20.9422 6.74195 21.167C10.2085 21.5545 13.7919 21.5545 17.2584 21.167C19.2705 20.9422 20.8948 19.3571 21.1314 17.3346C21.5459 13.7903 21.5459 10.2098 21.1314 6.66548C20.8948 4.64295 19.2705 3.05794 17.2584 2.83306ZM6.90856 4.32378C10.2644 3.94871 13.736 3.94871 17.0918 4.32378C18.4219 4.47244 19.4874 5.52205 19.6415 6.83973C20.0425 10.2683 20.0425 13.7318 19.6415 17.1604C19.4874 18.478 18.4219 19.5277 17.0918 19.6763C13.736 20.0514 10.2644 20.0514 6.90856 19.6763C5.57846 19.5277 4.51297 18.478 4.35885 17.1604C3.95786 13.7318 3.95786 10.2683 4.35885 6.83973C4.51297 5.52205 5.57845 4.47244 6.90856 4.32378Z" fill="black"/>
</svg>
