<svg width="24" height="24" viewBox="0 0 24 24" fill="none" xmlns="http://www.w3.org/2000/svg">
<path fill-rule="evenodd" clip-rule="evenodd" d="M7.30603 7.75816L7.64909 10.8457L6.95486 10.9011C5.98677 10.9784 5.19627 11.7062 5.03933 12.6646C4.67764 14.8735 4.67764 17.1265 5.03933 19.3354C5.19627 20.2938 5.98677 21.0215 6.95486 21.0988L8.45099 21.2183C10.8131 21.4068 13.1866 21.4068 15.5487 21.2183L17.0448 21.0988C18.0129 21.0215 18.8034 20.2938 18.9604 19.3354C19.322 17.1265 19.322 14.8735 18.9604 12.6646C18.8034 11.7062 18.0129 10.9784 17.0448 10.9011L16.3505 10.8457L16.6936 7.75815C16.734 7.39418 16.734 7.02684 16.6936 6.66286L16.6708 6.45797C16.4293 4.28458 14.7207 2.56492 12.5489 2.30941C12.1841 2.26649 11.8155 2.26649 11.4507 2.30941C9.27888 2.56492 7.57028 4.28457 7.32879 6.45796L7.30603 6.66286C7.26559 7.02684 7.26559 7.39418 7.30603 7.75816ZM12.3737 3.79914C12.1253 3.76992 11.8743 3.76992 11.6259 3.79914C10.1473 3.97309 8.98403 5.1439 8.81962 6.62361L8.79685 6.82851C8.76864 7.08239 8.76864 7.33862 8.79685 7.59251L9.14565 10.7317C11.0465 10.6098 12.9531 10.6098 14.8539 10.7317L15.2027 7.59251C15.2309 7.33862 15.2309 7.08239 15.2027 6.82851L15.18 6.62361C15.0156 5.1439 13.8523 3.97309 12.3737 3.79914ZM11.9998 14.5C11.1714 14.5 10.4998 15.1716 10.4998 16C10.4998 16.8284 11.1714 17.5 11.9998 17.5C12.8282 17.5 13.4998 16.8284 13.4998 16C13.4998 15.1716 12.8282 14.5 11.9998 14.5Z" fill="black"/>
</svg>
