<svg width="24" height="24" viewBox="0 0 24 24" fill="none" xmlns="http://www.w3.org/2000/svg">
<path fill-rule="evenodd" clip-rule="evenodd" d="M7.25009 5.4612V6.88179L5.55616 7.01852C4.35848 7.1152 3.38151 8.01697 3.18943 9.20309C3.14768 9.46088 3.10972 9.71911 3.07553 9.97772C3.05857 10.1061 3.127 10.2303 3.244 10.2857L3.32106 10.3222C8.74976 12.8926 15.2504 12.8926 20.6791 10.3222L20.7562 10.2857C20.8732 10.2303 20.9416 10.1061 20.9246 9.97773C20.8905 9.71912 20.8525 9.46088 20.8107 9.20309C20.6187 8.01697 19.6417 7.1152 18.444 7.01852L16.7501 6.88179V5.4612C16.7501 4.59495 16.1163 3.85906 15.2597 3.73056L14.0398 3.54757C12.6875 3.34474 11.3126 3.34474 9.96041 3.54757L8.7405 3.73056C7.88384 3.85906 7.25009 4.59495 7.25009 5.4612ZM13.8173 5.03098C12.6126 4.85027 11.3876 4.85027 10.1829 5.03098L8.96301 5.21396C8.84063 5.23232 8.75009 5.33745 8.75009 5.4612V6.77621C10.915 6.65219 13.0852 6.65219 15.2501 6.77621V5.4612C15.2501 5.33745 15.1596 5.23232 15.0372 5.21396L13.8173 5.03098Z" fill="black"/>
<path d="M21.1184 12.0709C21.1109 11.9308 20.9643 11.8432 20.836 11.9C15.265 14.3667 8.73513 14.3667 3.16421 11.9C3.03591 11.8432 2.88923 11.9308 2.88177 12.0709C2.78 13.9823 2.88255 15.9019 3.18943 17.7969C3.38151 18.983 4.35848 19.8848 5.55616 19.9815L7.42808 20.1326C10.4711 20.3782 13.529 20.3782 16.5721 20.1326L18.444 19.9815C19.6417 19.8848 20.6187 18.983 20.8107 17.7969C21.1176 15.9019 21.2202 13.9823 21.1184 12.0709Z" fill="black"/>
</svg>
