<svg width="24" height="24" viewBox="0 0 24 24" fill="none" xmlns="http://www.w3.org/2000/svg">
<path fill-rule="evenodd" clip-rule="evenodd" d="M9.72943 3.99262C10.8214 2.39495 13.1782 2.39496 14.2702 3.99262L14.7021 4.62457C17.4081 8.58379 19.7331 12.7904 21.6458 17.1881L21.736 17.3955C22.4101 18.9453 21.3917 20.705 19.7122 20.8927C14.5865 21.4656 9.41304 21.4656 4.28741 20.8927C2.60787 20.705 1.5895 18.9453 2.26356 17.3955L2.35377 17.1881C4.2665 12.7904 6.59147 8.58378 9.29751 4.62457L9.72943 3.99262ZM12.9998 8.99999C12.9998 9.55227 12.5521 9.99999 11.9998 9.99999C11.4475 9.99999 10.9998 9.55227 10.9998 8.99999C10.9998 8.4477 11.4475 7.99999 11.9998 7.99999C12.5521 7.99999 12.9998 8.4477 12.9998 8.99999ZM11.9998 11.75C12.414 11.75 12.7498 12.0858 12.7498 12.5V17.5C12.7498 17.9142 12.414 18.25 11.9998 18.25C11.5856 18.25 11.2498 17.9142 11.2498 17.5V12.5C11.2498 12.0858 11.5856 11.75 11.9998 11.75Z" fill="black"/>
</svg>
