<svg width="24" height="24" viewBox="0 0 24 24" fill="none" xmlns="http://www.w3.org/2000/svg">
<path fill-rule="evenodd" clip-rule="evenodd" d="M4.4767 10.481C6.41874 14.7108 9.8741 18.0738 14.1701 19.8974L14.9279 20.235C16.5489 20.9572 18.4543 20.4443 19.4936 19.0058L20.768 17.242C21.3129 16.4879 21.1724 15.4393 20.4483 14.8551L18.2236 13.0603C17.4494 12.4358 16.311 12.5812 15.7188 13.3804L15.2226 14.0499C13.0282 12.919 11.2359 11.1266 10.1049 8.93221L10.7744 8.43605C11.5736 7.84381 11.7191 6.70542 11.0945 5.93125L9.29947 3.7062C8.71548 2.98231 7.66725 2.8417 6.91313 3.38611L5.13983 4.66627C3.69185 5.71158 3.18192 7.63299 3.92102 9.25874L4.47553 10.4785L4.4767 10.481ZM14.762 18.5191C10.8083 16.8425 7.62779 13.7483 5.84047 9.85641L5.83988 9.85511L5.28654 8.63795C4.84307 7.6625 5.14903 6.50966 6.01782 5.88247L7.79111 4.60231C7.89884 4.52454 8.04859 4.54462 8.13202 4.64804L9.92706 6.87308C10.0163 6.98368 9.9955 7.14631 9.88134 7.23091L8.71296 8.09677C8.42921 8.30705 8.33061 8.68681 8.47622 9.00857C9.81416 11.965 12.1899 14.3407 15.1463 15.6786C15.468 15.8242 15.8478 15.7256 16.0581 15.4419L16.9239 14.2735C17.0085 14.1593 17.1712 14.1385 17.2818 14.2278L19.5065 16.0226C19.6099 16.106 19.63 16.2558 19.5522 16.3636L18.2778 18.1273C17.6542 18.9904 16.511 19.2982 15.5383 18.8648L14.7745 18.5244L14.762 18.5191Z" fill="black"/>
<path d="M13.7502 9.00003C13.7502 9.19894 13.8292 9.38971 13.9699 9.53036C14.1105 9.67101 14.3013 9.75003 14.5002 9.75003H18.3286C18.7428 9.75003 19.0786 9.41424 19.0786 9.00003C19.0786 8.58582 18.7428 8.25003 18.3286 8.25003H16.3109L19.4699 5.09102C19.7628 4.79813 19.7628 4.32325 19.4699 4.03036C19.177 3.73747 18.7021 3.73747 18.4092 4.03036L15.2502 7.18937V5.1716C15.2502 4.75739 14.9144 4.4216 14.5002 4.4216C14.086 4.4216 13.7502 4.75739 13.7502 5.1716V9.00003Z" fill="black"/>
</svg>
