<svg width="24" height="24" viewBox="0 0 24 24" fill="none" xmlns="http://www.w3.org/2000/svg">
<path d="M14.566 19.1519C10.3264 17.3529 6.91644 14.0344 5.00004 9.86053L4.99926 9.85884L4.48118 8.71922C3.77244 7.16027 4.29582 5.31742 5.71817 4.36372L7.05101 3.47002C7.48138 3.18145 8.06088 3.26942 8.38623 3.6727L10.8161 6.68464C11.173 7.12702 11.0899 7.77754 10.6332 8.11596L9.37595 9.04768C10.5553 11.4385 12.4963 13.3795 14.8871 14.5589L15.8189 13.3016C16.1573 12.845 16.8078 12.7618 17.2502 13.1187L20.262 15.5485C20.6654 15.8739 20.7533 16.4536 20.4646 16.884L19.5765 18.2077C18.6282 19.6212 16.8004 20.1475 15.2456 19.4547L14.566 19.1519Z" fill="black"/>
<path d="M13.7498 9.00003C13.7498 9.19894 13.8289 9.38971 13.9695 9.53036C14.1102 9.67101 14.3009 9.75003 14.4998 9.75003H18.3283C18.7425 9.75003 19.0783 9.41424 19.0783 9.00003C19.0783 8.58582 18.7425 8.25003 18.3283 8.25003H16.3105L19.4695 5.09102C19.7624 4.79813 19.7624 4.32325 19.4695 4.03036C19.1766 3.73747 18.7017 3.73747 18.4089 4.03036L15.2498 7.18937V5.1716C15.2498 4.75739 14.9141 4.4216 14.4998 4.4216C14.0856 4.4216 13.7498 4.75739 13.7498 5.1716V9.00003Z" fill="black"/>
</svg>
