<svg width="24" height="24" viewBox="0 0 24 24" fill="none" xmlns="http://www.w3.org/2000/svg">
<path fill-rule="evenodd" clip-rule="evenodd" d="M9.0956 15.5H7.7536V8.18504C8.2376 8.09704 8.9086 8.03104 9.8216 8.03104C10.8116 8.03104 11.5376 8.24004 12.0106 8.63604C12.4506 8.99904 12.7366 9.58204 12.7366 10.275C12.7366 10.979 12.5166 11.562 12.0986 11.958C11.5596 12.497 10.7126 12.75 9.7556 12.75C9.5026 12.75 9.2716 12.739 9.0956 12.706V15.5ZM9.8766 9.06504C9.5026 9.06504 9.2386 9.09804 9.0956 9.13104V11.639C9.2606 11.683 9.4806 11.694 9.7556 11.694C10.7676 11.694 11.3836 11.199 11.3836 10.33C11.3836 9.50504 10.8116 9.06504 9.8766 9.06504Z" fill="black"/>
<path d="M14.4648 15.621C13.8158 15.621 13.2328 15.456 12.8368 15.236L13.1008 14.257C13.4088 14.444 13.9918 14.642 14.4758 14.642C15.0698 14.642 15.3338 14.4 15.3338 14.048C15.3338 13.685 15.1138 13.498 14.4538 13.267C13.4088 12.904 12.9688 12.332 12.9798 11.705C12.9798 10.759 13.7608 10.022 15.0038 10.022C15.5978 10.022 16.1148 10.176 16.4228 10.341L16.1588 11.298C15.9278 11.166 15.4988 10.99 15.0258 10.99C14.5418 10.99 14.2778 11.221 14.2778 11.551C14.2778 11.892 14.5308 12.057 15.2128 12.299C16.1808 12.651 16.6318 13.146 16.6428 13.938C16.6428 14.906 15.8838 15.621 14.4648 15.621Z" fill="black"/>
<path fill-rule="evenodd" clip-rule="evenodd" d="M17.2584 2.83306C13.7919 2.44562 10.2085 2.44562 6.74195 2.83306C4.7299 3.05794 3.10556 4.64295 2.86901 6.66548C2.45447 10.2098 2.45447 13.7903 2.86901 17.3346C3.10556 19.3571 4.7299 20.9422 6.74195 21.167C10.2085 21.5545 13.7919 21.5545 17.2584 21.167C19.2705 20.9422 20.8948 19.3571 21.1314 17.3346C21.5459 13.7903 21.5459 10.2098 21.1314 6.66548C20.8948 4.64295 19.2705 3.05794 17.2584 2.83306ZM6.90856 4.32378C10.2644 3.94871 13.736 3.94871 17.0918 4.32378C18.4219 4.47244 19.4874 5.52205 19.6415 6.83973C20.0425 10.2683 20.0425 13.7318 19.6415 17.1604C19.4874 18.478 18.4219 19.5277 17.0918 19.6763C13.736 20.0514 10.2644 20.0514 6.90856 19.6763C5.57846 19.5277 4.51297 18.478 4.35885 17.1604C3.95786 13.7318 3.95786 10.2683 4.35885 6.83973C4.51297 5.52205 5.57845 4.47244 6.90856 4.32378Z" fill="black"/>
</svg>
