<svg width="24" height="24" viewBox="0 0 24 24" fill="none" xmlns="http://www.w3.org/2000/svg">
<path fill-rule="evenodd" clip-rule="evenodd" d="M7.24991 5.4612V6.9497C6.88835 6.97707 6.52698 7.00758 6.16582 7.04122C4.72493 7.17542 3.6012 8.51212 3.46184 9.95045C3.44586 10.1154 3.58158 10.25 3.74727 10.25H20.2525C20.4182 10.25 20.5539 10.1154 20.538 9.95045C20.3986 8.51212 19.2749 7.17542 17.834 7.04122C17.4728 7.00758 17.1115 6.97707 16.7499 6.9497V5.4612C16.7499 4.59495 16.1162 3.85906 15.2595 3.73056L14.0396 3.54757C12.6874 3.34474 11.3124 3.34474 9.96023 3.54757L8.74031 3.73056C7.88365 3.85906 7.24991 4.59495 7.24991 5.4612ZM13.8171 5.03098C12.6124 4.85027 11.3874 4.85027 10.1827 5.03098L8.96282 5.21396C8.84044 5.23232 8.74991 5.33745 8.74991 5.4612V6.85412C10.9151 6.74212 13.0847 6.74212 15.2499 6.85412V5.4612C15.2499 5.33745 15.1594 5.23232 15.037 5.21396L13.8171 5.03098Z" fill="black"/>
<path fill-rule="evenodd" clip-rule="evenodd" d="M20.5525 12.05C20.5525 11.8843 20.4182 11.75 20.2525 11.75H3.74726C3.58158 11.75 3.44727 11.8843 3.44727 12.05V17.9753C3.44727 19.5225 4.62526 20.8153 6.16582 20.9588C10.0468 21.3203 13.953 21.3203 17.834 20.9588C19.3745 20.8153 20.5525 19.5225 20.5525 17.9753V12.05ZM9.49991 15.25C9.08569 15.25 8.74991 15.5858 8.74991 16C8.74991 16.4142 9.08569 16.75 9.49991 16.75H11.2499V18.5C11.2499 18.9142 11.5857 19.25 11.9999 19.25C12.4141 19.25 12.7499 18.9142 12.7499 18.5V16.75H14.4999C14.9141 16.75 15.2499 16.4142 15.2499 16C15.2499 15.5858 14.9141 15.25 14.4999 15.25H12.7499V13.5C12.7499 13.0858 12.4141 12.75 11.9999 12.75C11.5857 12.75 11.2499 13.0858 11.2499 13.5V15.25H9.49991Z" fill="black"/>
</svg>
