<svg width="24" height="24" viewBox="0 0 24 24" fill="none" xmlns="http://www.w3.org/2000/svg">
<path d="M16.4108 8.98009L17.2502 8.17716L17.2495 8.00003H14.3478L12.2795 13.1602L9.92675 8.00068H6.88303V8.17716L7.86374 9.35779C7.91115 9.40047 7.94783 9.45373 7.9708 9.51325C7.99377 9.57276 8.00238 9.63685 7.99593 9.70032V14.3414C8.01 14.4239 8.00449 14.5086 7.97983 14.5886C7.95517 14.6685 7.91206 14.7416 7.85397 14.8018L6.75018 16.1401V16.3159H9.87726V16.1401L8.77412 14.8018C8.71556 14.7416 8.67147 14.6689 8.64518 14.5891C8.61889 14.5094 8.6111 14.4247 8.62239 14.3414V10.3281L11.3672 16.3165H11.6863L14.0437 10.3281V15.1014C14.0437 15.2277 14.0437 15.2525 13.9603 15.3358L13.1118 16.159V16.3348H17.2293V16.159L16.4108 15.3554C16.3754 15.3283 16.348 15.2922 16.3316 15.2507C16.3152 15.2093 16.3104 15.1642 16.3177 15.1203V9.21518C16.3104 9.17123 16.3152 9.12614 16.3316 9.08472C16.348 9.04331 16.3754 9.00714 16.4108 8.98009Z" fill="black"/>
<path fill-rule="evenodd" clip-rule="evenodd" d="M17.2584 2.83306C13.7919 2.44562 10.2085 2.44562 6.74195 2.83306C4.7299 3.05794 3.10556 4.64295 2.86901 6.66548C2.45447 10.2098 2.45447 13.7903 2.86901 17.3346C3.10556 19.3571 4.7299 20.9422 6.74195 21.167C10.2085 21.5545 13.7919 21.5545 17.2584 21.167C19.2705 20.9422 20.8948 19.3571 21.1314 17.3346C21.5459 13.7903 21.5459 10.2098 21.1314 6.66548C20.8948 4.64295 19.2705 3.05794 17.2584 2.83306ZM6.90856 4.32378C10.2644 3.94871 13.736 3.94871 17.0918 4.32378C18.4219 4.47244 19.4874 5.52205 19.6415 6.83973C20.0425 10.2683 20.0425 13.7318 19.6415 17.1604C19.4874 18.478 18.4219 19.5277 17.0918 19.6763C13.736 20.0514 10.2644 20.0514 6.90856 19.6763C5.57846 19.5277 4.51297 18.478 4.35885 17.1604C3.95786 13.7318 3.95786 10.2683 4.35885 6.83973C4.51297 5.52205 5.57845 4.47244 6.90856 4.32378Z" fill="black"/>
</svg>
