<svg width="24" height="24" viewBox="0 0 24 24" fill="none" xmlns="http://www.w3.org/2000/svg">
<path d="M12.9998 8.99999C12.9998 9.55227 12.5521 9.99999 11.9998 9.99999C11.4475 9.99999 10.9998 9.55227 10.9998 8.99999C10.9998 8.4477 11.4475 7.99999 11.9998 7.99999C12.5521 7.99999 12.9998 8.4477 12.9998 8.99999Z" fill="black"/>
<path d="M11.9998 11.75C12.414 11.75 12.7498 12.0858 12.7498 12.5V17.5C12.7498 17.9142 12.414 18.25 11.9998 18.25C11.5856 18.25 11.2498 17.9142 11.2498 17.5V12.5C11.2498 12.0858 11.5856 11.75 11.9998 11.75Z" fill="black"/>
<path fill-rule="evenodd" clip-rule="evenodd" d="M14.2702 3.99262C13.1782 2.39496 10.8214 2.39495 9.72943 3.99262L9.29751 4.62457C6.59147 8.58378 4.2665 12.7904 2.35377 17.1881L2.26356 17.3955C1.5895 18.9453 2.60787 20.705 4.28741 20.8927C9.41304 21.4656 14.5865 21.4656 19.7122 20.8927C21.3917 20.705 22.4101 18.9453 21.736 17.3955L21.6458 17.1881C19.7331 12.7904 17.4081 8.58379 14.7021 4.62457L14.2702 3.99262ZM10.9678 4.83903C11.4642 4.11282 12.5354 4.11282 13.0318 4.83903L13.4637 5.47098C16.1163 9.352 18.3953 13.4755 20.2703 17.7863L20.3605 17.9938C20.6319 18.6178 20.2219 19.3264 19.5456 19.402C14.5307 19.9625 9.46892 19.9625 4.45402 19.402C3.77773 19.3264 3.36767 18.6178 3.63908 17.9938L3.7293 17.7863C5.60425 13.4755 7.88329 9.35199 10.5359 5.47098L10.9678 4.83903Z" fill="black"/>
</svg>
