<svg width="24" height="24" viewBox="0 0 24 24" fill="none" xmlns="http://www.w3.org/2000/svg">
<path d="M10.4998 16C10.4998 15.1716 11.1714 14.5 11.9998 14.5C12.8283 14.5 13.4998 15.1716 13.4998 16C13.4998 16.8284 12.8283 17.5 11.9998 17.5C11.1714 17.5 10.4998 16.8284 10.4998 16Z" fill="black"/>
<path fill-rule="evenodd" clip-rule="evenodd" d="M9.81034 4.00497C10.0427 3.91246 10.2851 3.8475 10.5326 3.81144C12.0058 3.59678 13.4325 4.42661 13.9743 5.81335L14.0493 6.00537C14.1423 6.2433 14.2086 6.4908 14.2471 6.74334L14.4637 8.16565L15.9466 7.9398L15.73 6.51749C15.6748 6.15544 15.5797 5.80062 15.4465 5.45951L15.3715 5.26749C14.5757 3.23066 12.4802 2.01182 10.3163 2.32712C9.9528 2.38008 9.59676 2.47548 9.25548 2.61137C7.22382 3.42026 6.01852 5.52354 6.34777 7.68538L6.37881 7.88919C6.43396 8.25123 6.52903 8.60605 6.6623 8.94716L7.31644 10.6215L6.93497 10.6519C5.85224 10.7384 4.96814 11.5523 4.79262 12.6242C4.42655 14.8598 4.42655 17.1401 4.79262 19.3758C4.96814 20.4477 5.85224 21.2616 6.93497 21.348L8.4311 21.4675C10.8065 21.6571 13.1932 21.6571 15.5686 21.4675L17.0647 21.348C18.1474 21.2616 19.0316 20.4477 19.2071 19.3758C19.5731 17.1401 19.5731 14.8598 19.2071 12.6242C19.0316 11.5523 18.1474 10.7384 17.0647 10.6519L15.5686 10.5325C13.3425 10.3548 11.1064 10.3436 8.87901 10.499L8.05945 8.4013C7.96649 8.16337 7.90018 7.91587 7.86171 7.66334L7.83067 7.45953C7.60651 5.98768 8.42712 4.55569 9.81034 4.00497ZM15.4492 12.0277C13.1533 11.8445 10.8464 11.8445 8.55047 12.0277L7.05434 12.1472C6.65941 12.1787 6.33693 12.4756 6.27291 12.8666C5.93312 14.9417 5.93312 17.0583 6.27291 19.1334C6.33693 19.5244 6.65941 19.8213 7.05434 19.8528L8.55047 19.9722C10.8464 20.1555 13.1533 20.1555 15.4492 19.9722L16.9454 19.8528C17.3403 19.8213 17.6628 19.5244 17.7268 19.1334C18.0666 17.0583 18.0666 14.9417 17.7268 12.8666C17.6628 12.4756 17.3403 12.1787 16.9454 12.1472L15.4492 12.0277Z" fill="black"/>
</svg>
