<svg width="24" height="24" viewBox="0 0 24 24" fill="none" xmlns="http://www.w3.org/2000/svg">
<path d="M11.9999 8.75006C10.205 8.75006 8.74988 10.2051 8.74988 12.0001C8.74988 13.795 10.205 15.2501 11.9999 15.2501C13.7948 15.2501 15.2499 13.795 15.2499 12.0001C15.2499 10.2051 13.7948 8.75006 11.9999 8.75006Z" fill="black"/>
<path fill-rule="evenodd" clip-rule="evenodd" d="M12.6798 2.80582C12.257 2.57091 11.7428 2.57091 11.32 2.80582L4.12 6.80582C3.67555 7.05274 3.3999 7.5212 3.3999 8.02964V15.9705C3.3999 16.4789 3.67555 16.9474 4.12 17.1943L11.32 21.1943C11.7428 21.4292 12.257 21.4292 12.6798 21.1943L19.8798 17.1943C20.3243 16.9474 20.5999 16.4789 20.5999 15.9705V8.02964C20.5999 7.5212 20.3243 7.05274 19.8798 6.80582L12.6798 2.80582ZM7.24988 12.0001C7.24988 9.37671 9.37653 7.25006 11.9999 7.25006C14.6232 7.25006 16.7499 9.37671 16.7499 12.0001C16.7499 14.6234 14.6232 16.7501 11.9999 16.7501C9.37653 16.7501 7.24988 14.6234 7.24988 12.0001Z" fill="black"/>
</svg>
