<svg width="24" height="24" viewBox="0 0 24 24" fill="none" xmlns="http://www.w3.org/2000/svg">
<path d="M8.37128 15.5V8.08603H9.72428V15.5H8.37128Z" fill="black"/>
<path d="M12.2051 15.5H10.8411V11.738C10.8411 11.122 10.8301 10.605 10.7971 10.143H11.9851L12.0511 10.946H12.0841C12.3151 10.528 12.8981 10.022 13.7891 10.022C14.7241 10.022 15.6921 10.627 15.6921 12.321V15.5H14.3391V12.475C14.3391 11.705 14.0531 11.122 13.3161 11.122C12.7771 11.122 12.4031 11.507 12.2601 11.914C12.2161 12.035 12.2051 12.2 12.2051 12.354V15.5Z" fill="black"/>
<path fill-rule="evenodd" clip-rule="evenodd" d="M17.2584 2.83306C13.7919 2.44562 10.2085 2.44562 6.74195 2.83306C4.7299 3.05794 3.10556 4.64295 2.86901 6.66548C2.45447 10.2098 2.45447 13.7903 2.86901 17.3346C3.10556 19.3571 4.7299 20.9422 6.74195 21.167C10.2085 21.5545 13.7919 21.5545 17.2584 21.167C19.2705 20.9422 20.8948 19.3571 21.1314 17.3346C21.5459 13.7903 21.5459 10.2098 21.1314 6.66548C20.8948 4.64295 19.2705 3.05794 17.2584 2.83306ZM6.90856 4.32378C10.2644 3.94871 13.736 3.94871 17.0918 4.32378C18.4219 4.47244 19.4874 5.52205 19.6415 6.83973C20.0425 10.2683 20.0425 13.7318 19.6415 17.1604C19.4874 18.478 18.4219 19.5277 17.0918 19.6763C13.736 20.0514 10.2644 20.0514 6.90856 19.6763C5.57846 19.5277 4.51297 18.478 4.35885 17.1604C3.95786 13.7318 3.95786 10.2683 4.35885 6.83973C4.51297 5.52205 5.57845 4.47244 6.90856 4.32378Z" fill="black"/>
</svg>
