<svg width="24" height="24" viewBox="0 0 24 24" fill="none" xmlns="http://www.w3.org/2000/svg">
<path fill-rule="evenodd" clip-rule="evenodd" d="M13.6644 6.34314C13.6644 6.75735 14.0002 7.09314 14.4144 7.09314L16.907 7.09314V9.58578C16.907 9.99999 17.2428 10.3358 17.657 10.3358C18.0712 10.3358 18.407 9.99999 18.407 9.58578V6.34314C18.407 5.92893 18.0712 5.59314 17.657 5.59314L14.4144 5.59314C14.0002 5.59314 13.6644 5.92893 13.6644 6.34314Z" fill="black"/>
<path fill-rule="evenodd" clip-rule="evenodd" d="M17.657 13.6642C17.2428 13.6642 16.907 14 16.907 14.4142L16.907 16.9069L14.4143 16.9069C14.0001 16.9069 13.6643 17.2426 13.6643 17.6569C13.6643 18.0711 14.0001 18.4069 14.4143 18.4069L17.657 18.4069C18.0712 18.4069 18.407 18.0711 18.407 17.6569L18.407 14.4142C18.407 14 18.0712 13.6642 17.657 13.6642Z" fill="black"/>
<path fill-rule="evenodd" clip-rule="evenodd" d="M6.34329 13.6642C6.7575 13.6642 7.09329 14 7.09329 14.4142L7.09329 16.9069L9.58593 16.9069C10.0001 16.9069 10.3359 17.2426 10.3359 17.6569C10.3359 18.0711 10.0001 18.4069 9.58593 18.4069L6.34329 18.4069C5.92908 18.4069 5.59329 18.0711 5.59329 17.6569L5.59329 14.4142C5.59329 14 5.92907 13.6642 6.34329 13.6642Z" fill="black"/>
<path fill-rule="evenodd" clip-rule="evenodd" d="M10.3359 6.34314C10.3359 6.75735 10.0001 7.09314 9.5859 7.09314L7.09326 7.09314L7.09326 9.58578C7.09326 9.99999 6.75748 10.3358 6.34326 10.3358C5.92905 10.3358 5.59326 9.99999 5.59326 9.58578L5.59326 6.34314C5.59326 5.92893 5.92905 5.59314 6.34326 5.59314L9.5859 5.59314C10.0001 5.59314 10.3359 5.92893 10.3359 6.34314Z" fill="black"/>
</svg>
