<svg width="24" height="24" viewBox="0 0 24 24" fill="none" xmlns="http://www.w3.org/2000/svg">
<path d="M14.3026 13.575C14.3356 13.454 14.3466 13.322 14.3466 13.179V12.376C14.3466 12.266 14.3356 12.134 14.3136 12.024C14.1926 11.496 13.7636 11.067 13.1476 11.067C12.2786 11.067 11.7946 11.837 11.7946 12.838C11.7946 13.817 12.2786 14.532 13.1366 14.532C13.6866 14.532 14.1706 14.158 14.3026 13.575Z" fill="black"/>
<path fill-rule="evenodd" clip-rule="evenodd" d="M6.76972 3.08151C10.2178 2.69614 13.7825 2.69614 17.2307 3.08151C19.1291 3.29369 20.6603 4.78947 20.8831 6.69452C21.2954 10.2195 21.2954 13.7806 20.8831 17.3056C20.6603 19.2106 19.1291 20.7064 17.2307 20.9186C13.7825 21.304 10.2178 21.304 6.76972 20.9186C4.87132 20.7064 3.34013 19.2106 3.11732 17.3056C2.70504 13.7806 2.70504 10.2195 3.11732 6.69452C3.34013 4.78947 4.87132 3.29369 6.76972 3.08151ZM14.3466 10.726V7.69003H15.6996V13.993C15.6996 14.543 15.7216 15.137 15.7436 15.5H14.5336L14.4786 14.653H14.4566C14.1376 15.247 13.4886 15.621 12.7076 15.621C11.4316 15.621 10.4196 14.532 10.4196 12.882C10.4086 11.089 11.5306 10.022 12.8176 10.022C13.5546 10.022 14.0826 10.33 14.3246 10.726H14.3466ZM8.35516 15.5V8.08603H9.70816V15.5H8.35516Z" fill="black"/>
</svg>
