<svg width="24" height="24" viewBox="0 0 24 24" fill="none" xmlns="http://www.w3.org/2000/svg">
<path fill-rule="evenodd" clip-rule="evenodd" d="M6.66402 4.41425C6.66402 4.00003 6.9998 3.66425 7.41402 3.66425H10.2424C10.6567 3.66425 10.9924 4.00003 10.9924 4.41425C10.9924 4.82846 10.6567 5.16425 10.2424 5.16425H9.22468L11.823 7.76259C11.9207 7.86023 12.0789 7.86023 12.1766 7.7626L16.0553 3.88392C16.3482 3.59102 16.823 3.59102 17.1159 3.88392C17.4088 4.17681 17.4088 4.65168 17.1159 4.94458L13.2372 8.82326C12.5538 9.50667 11.4458 9.50667 10.7624 8.82325L8.16402 6.22491V7.24267C8.16402 7.65689 7.82823 7.99267 7.41402 7.99267C6.9998 7.99267 6.66402 7.65689 6.66402 7.24267V4.41425Z" fill="black"/>
<path fill-rule="evenodd" clip-rule="evenodd" d="M17.9716 13.5722C13.9558 12.084 9.51899 12.1451 5.53773 13.7553L5.52516 13.7603L4.74432 14.0597C3.75014 14.441 3.15939 15.467 3.32873 16.5183L3.67477 18.6666C3.69591 18.7978 3.81602 18.8895 3.94818 18.8754L6.79042 18.5714C6.93171 18.5563 7.03201 18.4266 7.01111 18.286L6.79719 16.8476C6.74524 16.4983 6.94405 16.16 7.27453 16.0355C10.3111 14.891 13.6708 14.891 16.7074 16.0355C17.0379 16.16 17.2367 16.4983 17.1847 16.8476L16.9708 18.286C16.9499 18.4266 17.0502 18.5563 17.1915 18.5714L20.0342 18.8754C20.1663 18.8896 20.2864 18.7979 20.3075 18.6667L20.6562 16.5076C20.8271 15.4498 20.2282 14.4182 19.2249 14.0421L17.973 13.5727L17.9716 13.5722ZM4.98167 12.3621C9.30888 10.6138 14.1302 10.5485 18.4943 12.1662L18.497 12.1672L19.7515 12.6375C21.4237 13.2645 22.4218 14.9837 22.1371 16.7467L21.7884 18.9059C21.6401 19.8241 20.7994 20.4658 19.8746 20.3669L17.032 20.0629C16.0429 19.9571 15.3408 19.0492 15.4871 18.0654L15.6097 17.2411C13.2584 16.4891 10.7236 16.4891 8.37221 17.2411L8.49479 18.0654C8.64111 19.0492 7.939 19.9571 6.94995 20.0629L4.10771 20.3669C3.18262 20.4658 2.34181 19.8236 2.19386 18.9051L1.84782 16.7568C1.56559 15.0048 2.55018 13.2947 4.20714 12.6592L4.98167 12.3621Z" fill="black"/>
</svg>
