<svg width="24" height="24" viewBox="0 0 24 24" fill="none" xmlns="http://www.w3.org/2000/svg">
<path d="M6.54567 8.16277C6.33045 8.10599 6.15157 7.95655 6.05741 7.75486C5.96325 7.55318 5.96354 7.32009 6.0582 7.11863L7.71895 3.58424C7.84271 3.32086 8.10766 3.15284 8.39867 3.1532C8.68969 3.15356 8.95422 3.32223 9.07733 3.58592L9.80996 5.15516C9.83615 5.14486 9.8632 5.13594 9.89103 5.12848C14.2384 3.96361 18.7069 6.54352 19.8718 10.8909C21.0366 15.2382 18.4567 19.7068 14.1094 20.8716C9.76204 22.0365 5.2935 19.4566 4.12864 15.1092C3.75821 13.7268 3.76655 12.3299 4.09098 11.0312C4.19137 10.6293 4.59853 10.3849 5.00039 10.4853C5.40225 10.5857 5.64665 10.9929 5.54626 11.3947C5.28197 12.4527 5.27468 13.5908 5.57753 14.721C6.52798 18.2682 10.174 20.3732 13.7212 19.4227C17.2683 18.4723 19.3733 14.8262 18.4229 11.2791C17.488 7.78995 13.9449 5.69613 10.4533 6.53319L11.1925 8.11649C11.3156 8.38018 11.2751 8.69128 11.0885 8.91462C10.9019 9.13795 10.603 9.23319 10.3216 9.15895L6.54567 8.16277Z" fill="black"/>
</svg>
