<svg width="24" height="24" viewBox="0 0 24 24" fill="none" xmlns="http://www.w3.org/2000/svg">
<path fill-rule="evenodd" clip-rule="evenodd" d="M6.76972 3.08151C10.2178 2.69614 13.7825 2.69614 17.2307 3.08151C19.1291 3.29369 20.6603 4.78947 20.8831 6.69452C21.2954 10.2195 21.2954 13.7806 20.8831 17.3056C20.6603 19.2106 19.1291 20.7064 17.2307 20.9186C13.7825 21.304 10.2178 21.304 6.76972 20.9186C4.87132 20.7064 3.34013 19.2106 3.11732 17.3056C2.70504 13.7806 2.70504 10.2195 3.11732 6.69452C3.34013 4.78947 4.87132 3.29369 6.76972 3.08151ZM10.8732 16.4069C10.9221 16.2903 10.9472 16.1653 10.9471 16.039V6.95853C10.9471 6.42953 10.5117 6.00003 9.97298 6.00003H6.97172C6.43552 6.00003 6.00018 6.43003 6.00018 6.95853V16.039C6.00045 16.2934 6.10281 16.5373 6.28488 16.7174C6.46695 16.8975 6.7139 16.9991 6.97172 17H9.97298C10.1009 17.0002 10.2277 16.9754 10.3459 16.9271C10.4641 16.8789 10.5716 16.8081 10.6621 16.7189C10.7525 16.6296 10.8243 16.5236 10.8732 16.4069ZM17.7156 12.7175C17.8977 12.5374 18.0001 12.2934 18.0002 12.039V6.95853C18.0002 6.42953 17.5643 6.00003 17.0286 6.00003H14.0274C13.4917 6.00003 13.0533 6.43003 13.0533 6.95853V12.039C13.0536 12.2938 13.1563 12.5381 13.3389 12.7183C13.5215 12.8984 13.7691 12.9998 14.0274 13H17.0286C17.2865 12.9992 17.5335 12.8977 17.7156 12.7175Z" fill="black"/>
</svg>
