<svg width="24" height="24" viewBox="0 0 24 24" fill="none" xmlns="http://www.w3.org/2000/svg">
<path fill-rule="evenodd" clip-rule="evenodd" d="M8.37984 7.19396C9.34158 5.69967 11.0203 4.70825 12.9317 4.70825C15.8122 4.70825 18.1669 6.9597 18.3319 9.79883C18.3953 9.79616 18.4591 9.79481 18.5231 9.79481C20.996 9.79481 23.0006 11.7995 23.0006 14.2724C23.0006 16.7453 20.996 18.7499 18.5231 18.7499H6.87443C3.62953 18.7499 0.999023 16.1194 0.999023 12.8745C0.999023 9.62964 3.62953 6.99913 6.87443 6.99913C7.39409 6.99913 7.89881 7.06678 8.37984 7.19396ZM15.0301 11.5303C15.323 11.2374 15.323 10.7625 15.0301 10.4696C14.7373 10.1767 14.2624 10.1767 13.9695 10.4696L10.9998 13.4393L9.53015 11.9696C9.23725 11.6767 8.76238 11.6767 8.46949 11.9696C8.17659 12.2625 8.17659 12.7374 8.46949 13.0303L10.4695 15.0303C10.7624 15.3232 11.2373 15.3232 11.5301 15.0303L15.0301 11.5303Z" fill="black"/>
</svg>
