<svg width="24" height="24" viewBox="0 0 24 24" fill="none" xmlns="http://www.w3.org/2000/svg">
<path d="M10.1559 9.06504C9.7819 9.06504 9.5179 9.09804 9.3749 9.13104V11.639C9.5399 11.683 9.7599 11.694 10.0349 11.694C11.0469 11.694 11.6629 11.199 11.6629 10.33C11.6629 9.50504 11.0909 9.06504 10.1559 9.06504Z" fill="black"/>
<path fill-rule="evenodd" clip-rule="evenodd" d="M6.76972 3.08151C10.2178 2.69614 13.7825 2.69614 17.2307 3.08151C19.1291 3.29369 20.6603 4.78947 20.8831 6.69452C21.2954 10.2195 21.2954 13.7806 20.8831 17.3056C20.6603 19.2106 19.1291 20.7064 17.2307 20.9186C13.7825 21.304 10.2178 21.304 6.76972 20.9186C4.87132 20.7064 3.34013 19.2106 3.11732 17.3056C2.70504 13.7806 2.70504 10.2195 3.11732 6.69452C3.34013 4.78947 4.87132 3.29369 6.76972 3.08151ZM9.3749 15.5H8.0329V8.18504C8.5169 8.09704 9.1879 8.03104 10.1009 8.03104C11.0909 8.03104 11.8169 8.24004 12.2899 8.63604C12.7299 8.99904 13.0159 9.58204 13.0159 10.275C13.0159 10.979 12.7959 11.562 12.3779 11.958C11.8389 12.497 10.9919 12.75 10.0349 12.75C9.7819 12.75 9.5509 12.739 9.3749 12.706V15.5ZM14.9065 15.5H13.5535V11.87C13.5535 11.144 13.5425 10.627 13.5095 10.143H14.6865L14.7305 11.166H14.7745C15.0385 10.407 15.6655 10.022 16.2375 10.022C16.3695 10.022 16.4465 10.033 16.5565 10.055V11.331C16.4465 11.309 16.3255 11.287 16.1605 11.287C15.5115 11.287 15.0715 11.705 14.9505 12.31C14.9285 12.431 14.9065 12.574 14.9065 12.728V15.5Z" fill="black"/>
</svg>
