<svg width="24" height="24" viewBox="0 0 24 24" fill="none" xmlns="http://www.w3.org/2000/svg">
<path fill-rule="evenodd" clip-rule="evenodd" d="M10.4188 4.23059C11.0599 3.12569 12.75 3.58052 12.75 4.85795V16.5386C12.75 17.5594 12.1845 18.4963 11.2812 18.9719L8.00554 20.6967C6.70853 21.3796 5.1969 20.2608 5.4711 18.8208L6.17108 15.1449C6.25628 14.6974 6.09136 14.2391 5.74062 13.9485L3.24172 11.8782C2.07743 10.9136 2.60184 9.026 4.09683 8.8002L7.52648 8.28219C7.90154 8.22554 8.23059 8.00165 8.42097 7.67357L10.4188 4.23059ZM11.25 5.78691L9.71837 8.4264C9.29955 9.14818 8.57564 9.64074 7.7505 9.76537L4.32085 10.2834C4.10728 10.3156 4.03236 10.5853 4.19869 10.7231L6.69759 12.7934C7.46922 13.4327 7.83205 14.4411 7.6446 15.4255L6.94462 19.1014C6.90545 19.3071 7.1214 19.467 7.30669 19.3694L10.5823 17.6446C10.9929 17.4285 11.25 17.0026 11.25 16.5386V5.78691Z" fill="black"/>
</svg>
