<svg width="24" height="24" viewBox="0 0 24 24" fill="none" xmlns="http://www.w3.org/2000/svg">
<path d="M16.0321 13.575C16.0651 13.454 16.0761 13.322 16.0761 13.179V12.376C16.0761 12.266 16.0651 12.134 16.0431 12.024C15.9221 11.496 15.4931 11.067 14.8771 11.067C14.0081 11.067 13.5241 11.837 13.5241 12.838C13.5241 13.817 14.0081 14.532 14.8661 14.532C15.4161 14.532 15.9001 14.158 16.0321 13.575Z" fill="black"/>
<path fill-rule="evenodd" clip-rule="evenodd" d="M6.76972 3.08151C10.2178 2.69614 13.7825 2.69614 17.2307 3.08151C19.1291 3.29369 20.6603 4.78947 20.8831 6.69452C21.2954 10.2195 21.2954 13.7806 20.8831 17.3056C20.6603 19.2106 19.1291 20.7064 17.2307 20.9186C13.7825 21.304 10.2178 21.304 6.76972 20.9186C4.87132 20.7064 3.34013 19.2106 3.11732 17.3056C2.70504 13.7806 2.70504 10.2195 3.11732 6.69452C3.34013 4.78947 4.87132 3.29369 6.76972 3.08151ZM16.0761 10.726V7.69003H17.4291V13.993C17.4291 14.543 17.4511 15.137 17.4731 15.5H16.2631L16.2081 14.653H16.1861C15.8671 15.247 15.2181 15.621 14.4371 15.621C13.1611 15.621 12.1491 14.532 12.1491 12.882C12.1381 11.089 13.2601 10.022 14.5471 10.022C15.2841 10.022 15.8121 10.33 16.0541 10.726H16.0761ZM9.9037 11.705L12.1587 15.5H10.5967L9.7937 14.026C9.4747 13.454 9.2657 13.058 9.0567 12.629H9.0237C8.8477 13.058 8.6497 13.454 8.3527 14.026L7.6157 15.5H6.0647L8.2647 11.749L6.1527 8.08603H7.7037L8.5067 9.61503C8.7487 10.077 8.9247 10.44 9.1227 10.858H9.1447C9.3427 10.396 9.4967 10.066 9.7277 9.61503L10.5197 8.08603H12.0707L9.9037 11.705Z" fill="black"/>
</svg>
