<svg width="24" height="24" viewBox="0 0 24 24" fill="none" xmlns="http://www.w3.org/2000/svg">
<path d="M10.4012 10.55L9.82922 12.376H11.7322L11.1492 10.55C11.0335 10.185 10.9322 9.78397 10.8394 9.41687C10.8176 9.3304 10.7962 9.24582 10.7752 9.16403H10.7532C10.7155 9.31102 10.6778 9.46834 10.6393 9.62936C10.5653 9.93828 10.488 10.2608 10.4012 10.55Z" fill="black"/>
<path fill-rule="evenodd" clip-rule="evenodd" d="M6.76972 3.08151C10.2178 2.69614 13.7825 2.69614 17.2307 3.08151C19.1291 3.29369 20.6603 4.78947 20.8831 6.69452C21.2954 10.2195 21.2954 13.7806 20.8831 17.3056C20.6603 19.2106 19.1291 20.7064 17.2307 20.9186C13.7825 21.304 10.2178 21.304 6.76972 20.9186C4.87132 20.7064 3.34013 19.2106 3.11732 17.3056C2.70504 13.7806 2.70504 10.2195 3.11732 6.69452C3.34013 4.78947 4.87132 3.29369 6.76972 3.08151ZM15.9327 10.143V15.5H14.5687V10.143H15.9327ZM14.4917 8.64703C14.4917 8.22903 14.7997 7.91003 15.2507 7.91003C15.7127 7.91003 15.9987 8.22903 16.0097 8.64703C16.0097 9.05403 15.7127 9.37303 15.2397 9.37303C14.7887 9.37303 14.4917 9.05403 14.4917 8.64703ZM12.6342 15.5L11.9632 13.399H9.60922L8.97122 15.5H7.57422L9.95022 8.08603H11.6772L14.0862 15.5H12.6342Z" fill="black"/>
</svg>
